<svg width="14" height="12" viewBox="0 0 14 12" fill="none" xmlns="http://www.w3.org/2000/svg">
<path d="M0.195801 6.21191C0.195801 6.02637 0.271484 5.86279 0.422852 5.72119L5.27148 0.879883C5.34961 0.801758 5.42773 0.745605 5.50586 0.711426C5.58887 0.677246 5.67432 0.660156 5.76221 0.660156C5.94287 0.660156 6.09424 0.721191 6.21631 0.843262C6.34326 0.960449 6.40674 1.10938 6.40674 1.29004C6.40674 1.37793 6.38965 1.46338 6.35547 1.54639C6.32617 1.62451 6.28223 1.69287 6.22363 1.75146L4.58301 3.42139L1.68262 6.07275L1.52881 5.70654L3.88721 5.56006H13.1523C13.3428 5.56006 13.4966 5.62109 13.6138 5.74316C13.7358 5.86523 13.7969 6.02148 13.7969 6.21191C13.7969 6.40234 13.7358 6.55859 13.6138 6.68066C13.4966 6.80273 13.3428 6.86377 13.1523 6.86377H3.88721L1.52881 6.71729L1.68262 6.3584L4.58301 9.00244L6.22363 10.6724C6.28223 10.731 6.32617 10.8018 6.35547 10.8848C6.38965 10.9629 6.40674 11.0459 6.40674 11.1338C6.40674 11.3145 6.34326 11.4634 6.21631 11.5806C6.09424 11.7026 5.94287 11.7637 5.76221 11.7637C5.58643 11.7637 5.42773 11.6953 5.28613 11.5586L0.422852 6.70264C0.271484 6.56104 0.195801 6.39746 0.195801 6.21191Z" fill="#3C3C43" fill-opacity="0.3"/>
</svg>
