<svg width="24" height="24" viewBox="0 0 24 24" fill="none" xmlns="http://www.w3.org/2000/svg">
<path d="M11.9984 10.0036C12.5169 10.0036 13.0114 10.0036 13.5026 10.0036C15.3103 10.0036 17.1179 10.0036 18.9256 10.0036C19.5702 10.0002 20 10.4401 20 11.0882C20 11.6919 20 12.299 20 12.9027C20 13.5882 19.5941 13.9975 18.9086 14.0009C16.678 14.0009 14.4507 14.0009 12.2201 14.0009C12.1553 14.0009 12.0871 14.0009 11.9984 14.0009C11.9984 14.0896 11.9984 14.1544 11.9984 14.2192C11.9984 15.1299 11.9984 16.0406 11.9984 16.9478C11.9984 17.2855 11.8893 17.572 11.6198 17.7834C11.2208 18.0938 10.7296 18.0699 10.3101 17.7255C9.952 17.4287 9.59728 17.1286 9.24256 16.8318C7.67363 15.5289 6.1047 14.226 4.53576 12.9266C4.31747 12.7458 4.11283 12.548 4.0378 12.2649C3.93206 11.8658 4.05144 11.5213 4.35499 11.2553C4.83591 10.8324 5.33046 10.4231 5.82502 10.0138C6.90622 9.11678 7.98742 8.22317 9.06862 7.32614C9.49155 6.97484 9.90766 6.61671 10.334 6.26882C10.6546 6.00619 11.0161 5.9141 11.4084 6.09146C11.8108 6.27564 12.0018 6.60307 12.0053 7.03964C12.0053 7.94349 12.0053 8.84733 12.0053 9.75117C12.0053 9.8228 12.0053 9.89783 12.0053 10.0002L11.9984 10.0036Z" fill="#478CF6"/>
<path d="M11.9984 10.0036C12.5169 10.0036 13.0114 10.0036 13.5026 10.0036C15.3103 10.0036 17.1179 10.0036 18.9256 10.0036C19.5702 10.0002 20 10.4401 20 11.0882C20 11.6919 20 12.299 20 12.9027C20 13.5882 19.5941 13.9975 18.9086 14.0009C16.678 14.0009 14.4507 14.0009 12.2201 14.0009C12.1553 14.0009 12.0871 14.0009 11.9984 14.0009C11.9984 14.0896 11.9984 14.1544 11.9984 14.2192C11.9984 15.1299 11.9984 16.0406 11.9984 16.9478C11.9984 17.2855 11.8893 17.572 11.6198 17.7834C11.2208 18.0938 10.7296 18.0699 10.3101 17.7255C9.952 17.4287 9.59728 17.1286 9.24256 16.8318C7.67363 15.5289 6.1047 14.226 4.53576 12.9266C4.31747 12.7458 4.11283 12.548 4.0378 12.2649C3.93206 11.8658 4.05144 11.5213 4.35499 11.2553C4.83591 10.8324 5.33046 10.4231 5.82502 10.0138C6.90622 9.11678 7.98742 8.22317 9.06862 7.32614C9.49155 6.97484 9.90766 6.61671 10.334 6.26882C10.6546 6.00619 11.0161 5.9141 11.4084 6.09146C11.8108 6.27564 12.0018 6.60307 12.0053 7.03964C12.0053 7.94349 12.0053 8.84733 12.0053 9.75117C12.0053 9.8228 12.0053 9.89783 12.0053 10.0002L11.9984 10.0036Z" fill="url(#paint0_linear_103_995)" fill-opacity="0.75" style="mix-blend-mode:overlay"/>
<defs>
<linearGradient id="paint0_linear_103_995" x1="12" y1="18.001" x2="12" y2="6.00001" gradientUnits="userSpaceOnUse">
<stop stop-color="#666666"/>
<stop offset="0.677083" stop-color="#666666" stop-opacity="0"/>
</linearGradient>
</defs>
</svg>
