<svg width="24" height="24" viewBox="0 0 24 24" fill="none" xmlns="http://www.w3.org/2000/svg">
<path d="M7.65982 7.92778C7.88279 5.69802 9.75908 4 12 4C14.2408 4 16.1171 5.69802 16.3401 7.92778L16.5664 10.1905C16.5801 10.3281 16.587 10.3969 16.5953 10.4646C16.7091 11.3987 17.0302 12.2956 17.5352 13.0896C17.5718 13.1472 17.6101 13.2047 17.6868 13.3198L18.3667 14.3396C18.9875 15.2707 19.2979 15.7363 19.1616 16.1115C19.1359 16.1825 19.1001 16.2493 19.0553 16.3101C18.8187 16.6316 18.2592 16.6316 17.14 16.6316H6.85988C5.74076 16.6316 5.18121 16.6316 4.94458 16.3101C4.89983 16.2493 4.86404 16.1825 4.83829 16.1115C4.70207 15.7363 5.01246 15.2707 5.63323 14.3396L6.31308 13.3198C6.38979 13.2047 6.42814 13.1472 6.46475 13.0896C6.96969 12.2956 7.29081 11.3987 7.40465 10.4646C7.4129 10.3969 7.41978 10.3281 7.43354 10.1905L7.65982 7.92778Z" fill="#478CF6"/>
<path d="M7.65982 7.92778C7.88279 5.69802 9.75908 4 12 4C14.2408 4 16.1171 5.69802 16.3401 7.92778L16.5664 10.1905C16.5801 10.3281 16.587 10.3969 16.5953 10.4646C16.7091 11.3987 17.0302 12.2956 17.5352 13.0896C17.5718 13.1472 17.6101 13.2047 17.6868 13.3198L18.3667 14.3396C18.9875 15.2707 19.2979 15.7363 19.1616 16.1115C19.1359 16.1825 19.1001 16.2493 19.0553 16.3101C18.8187 16.6316 18.2592 16.6316 17.14 16.6316H6.85988C5.74076 16.6316 5.18121 16.6316 4.94458 16.3101C4.89983 16.2493 4.86404 16.1825 4.83829 16.1115C4.70207 15.7363 5.01246 15.2707 5.63323 14.3396L6.31308 13.3198C6.38979 13.2047 6.42814 13.1472 6.46475 13.0896C6.96969 12.2956 7.29081 11.3987 7.40465 10.4646C7.4129 10.3969 7.41978 10.3281 7.43354 10.1905L7.65982 7.92778Z" fill="url(#paint0_linear_94_149)" fill-opacity="0.75" style="mix-blend-mode:overlay"/>
<path d="M10.4748 18.7074C10.5647 18.7914 10.763 18.8655 11.0387 18.9184C11.3145 18.9713 11.6523 19 11.9999 19C12.3475 19 12.6854 18.9713 12.9611 18.9184C13.2369 18.8655 13.4351 18.7914 13.5251 18.7074" stroke="#478CF6" stroke-width="1.57895" stroke-linecap="round"/>
<path d="M10.4748 18.7074C10.5647 18.7914 10.763 18.8655 11.0387 18.9184C11.3145 18.9713 11.6523 19 11.9999 19C12.3475 19 12.6854 18.9713 12.9611 18.9184C13.2369 18.8655 13.4351 18.7914 13.5251 18.7074" stroke="url(#paint1_linear_94_149)" stroke-opacity="0.75" stroke-width="1.57895" stroke-linecap="round" style="mix-blend-mode:overlay"/>
<defs>
<linearGradient id="paint0_linear_94_149" x1="12" y1="4" x2="12" y2="16.6316" gradientUnits="userSpaceOnUse">
<stop stop-color="#666666"/>
<stop offset="0.677083" stop-color="#666666" stop-opacity="0"/>
</linearGradient>
<linearGradient id="paint1_linear_94_149" x1="11.9999" y1="19" x2="11.9999" y2="18.2105" gradientUnits="userSpaceOnUse">
<stop stop-color="#666666"/>
<stop offset="0.677083" stop-color="#666666" stop-opacity="0"/>
</linearGradient>
</defs>
</svg>
