<svg width="14" height="14" viewBox="0 0 14 14" fill="none" xmlns="http://www.w3.org/2000/svg">
<path d="M7 13.8979C6.1071 13.8979 5.26921 13.7287 4.48633 13.3901C3.70345 13.0558 3.01579 12.5924 2.42334 12C1.83089 11.4033 1.3654 10.7157 1.02686 9.93701C0.692546 9.15413 0.525391 8.31624 0.525391 7.42334C0.525391 6.53044 0.692546 5.69255 1.02686 4.90967C1.3654 4.12679 1.83089 3.43913 2.42334 2.84668C3.01579 2.25423 3.70345 1.79085 4.48633 1.45654C5.26921 1.118 6.1071 0.94873 7 0.94873C7.8929 0.94873 8.73079 1.118 9.51367 1.45654C10.2965 1.79085 10.9842 2.25423 11.5767 2.84668C12.1691 3.43913 12.6325 4.12679 12.9668 4.90967C13.3053 5.69255 13.4746 6.53044 13.4746 7.42334C13.4746 8.31624 13.3053 9.15413 12.9668 9.93701C12.6325 10.7157 12.1691 11.4033 11.5767 12C10.9842 12.5924 10.2965 13.0558 9.51367 13.3901C8.73079 13.7287 7.8929 13.8979 7 13.8979ZM4.12451 9.78467H9.88184C10.0511 9.78467 10.1823 9.74447 10.2754 9.66406C10.3727 9.58366 10.4214 9.47998 10.4214 9.35303C10.4214 9.16683 10.3473 8.99121 10.1992 8.82617C10.0553 8.66113 9.90299 8.49821 9.74219 8.3374C9.65755 8.25277 9.59408 8.14486 9.55176 8.01367C9.50944 7.88249 9.47982 7.74284 9.46289 7.59473C9.44596 7.44238 9.43115 7.2985 9.41846 7.16309C9.40576 6.46061 9.29574 5.87663 9.08838 5.41113C8.88102 4.94564 8.53825 4.62402 8.06006 4.44629C7.98389 4.21354 7.85482 4.01465 7.67285 3.84961C7.49512 3.68457 7.27295 3.60205 7.00635 3.60205C6.73975 3.60205 6.51546 3.68457 6.3335 3.84961C6.15576 4.01465 6.02881 4.21354 5.95264 4.44629C5.47445 4.62402 5.13167 4.94564 4.92432 5.41113C4.71696 5.87663 4.60482 6.46061 4.58789 7.16309C4.57943 7.2985 4.56462 7.44027 4.54346 7.58838C4.52653 7.73649 4.49691 7.87826 4.45459 8.01367C4.41227 8.14486 4.35091 8.25277 4.27051 8.3374C4.11393 8.50244 3.96159 8.66748 3.81348 8.83252C3.66536 8.99333 3.59131 9.16683 3.59131 9.35303C3.59131 9.47998 3.63786 9.58366 3.73096 9.66406C3.82829 9.74447 3.95947 9.78467 4.12451 9.78467ZM7.00635 11.3018C7.31527 11.3018 7.57129 11.2065 7.77441 11.0161C7.97754 10.8215 8.08968 10.5929 8.11084 10.3306H5.90186C5.92301 10.5929 6.03516 10.8215 6.23828 11.0161C6.44141 11.2065 6.69743 11.3018 7.00635 11.3018Z" fill="#007AFF"/>
</svg>
