<svg width="20" height="16" viewBox="0 0 20 16" fill="none" xmlns="http://www.w3.org/2000/svg">
<path d="M10 3C12.7614 3 15 5.46243 15 8.5C15 11.5376 12.7614 14 10 14C7.23858 14 5 11.5376 5 8.5C5 5.46243 7.23858 3 10 3Z" fill="#007AFF"/>
<path d="M10 14.8979C9.1071 14.8979 8.26921 14.7287 7.48633 14.3901C6.70345 14.0558 6.01579 13.5924 5.42334 13C4.83089 12.4033 4.3654 11.7157 4.02686 10.937C3.69255 10.1541 3.52539 9.31624 3.52539 8.42334C3.52539 7.53044 3.69255 6.69255 4.02686 5.90967C4.3654 5.12679 4.83089 4.43913 5.42334 3.84668C6.01579 3.25423 6.70345 2.79085 7.48633 2.45654C8.26921 2.118 9.1071 1.94873 10 1.94873C10.8929 1.94873 11.7308 2.118 12.5137 2.45654C13.2965 2.79085 13.9842 3.25423 14.5767 3.84668C15.1691 4.43913 15.6325 5.12679 15.9668 5.90967C16.3053 6.69255 16.4746 7.53044 16.4746 8.42334C16.4746 9.31624 16.3053 10.1541 15.9668 10.937C15.6325 11.7157 15.1691 12.4033 14.5767 13C13.9842 13.5924 13.2965 14.0558 12.5137 14.3901C11.7308 14.7287 10.8929 14.8979 10 14.8979ZM7.12451 10.7847H12.8818C13.0511 10.7847 13.1823 10.7445 13.2754 10.6641C13.3727 10.5837 13.4214 10.48 13.4214 10.353C13.4214 10.1668 13.3473 9.99121 13.1992 9.82617C13.0553 9.66113 12.903 9.49821 12.7422 9.3374C12.6576 9.25277 12.5941 9.14486 12.5518 9.01367C12.5094 8.88249 12.4798 8.74284 12.4629 8.59473C12.446 8.44238 12.4312 8.2985 12.4185 8.16309C12.4058 7.46061 12.2957 6.87663 12.0884 6.41113C11.881 5.94564 11.5382 5.62402 11.0601 5.44629C10.9839 5.21354 10.8548 5.01465 10.6729 4.84961C10.4951 4.68457 10.2729 4.60205 10.0063 4.60205C9.73975 4.60205 9.51546 4.68457 9.3335 4.84961C9.15576 5.01465 9.02881 5.21354 8.95264 5.44629C8.47445 5.62402 8.13167 5.94564 7.92432 6.41113C7.71696 6.87663 7.60482 7.46061 7.58789 8.16309C7.57943 8.2985 7.56462 8.44027 7.54346 8.58838C7.52653 8.73649 7.49691 8.87826 7.45459 9.01367C7.41227 9.14486 7.35091 9.25277 7.27051 9.3374C7.11393 9.50244 6.96159 9.66748 6.81348 9.83252C6.66536 9.99333 6.59131 10.1668 6.59131 10.353C6.59131 10.48 6.63786 10.5837 6.73096 10.6641C6.82829 10.7445 6.95947 10.7847 7.12451 10.7847ZM10.0063 12.3018C10.3153 12.3018 10.5713 12.2065 10.7744 12.0161C10.9775 11.8215 11.0897 11.5929 11.1108 11.3306H8.90186C8.92301 11.5929 9.03516 11.8215 9.23828 12.0161C9.44141 12.2065 9.69743 12.3018 10.0063 12.3018Z" fill="white"/>
</svg>
