<svg width="24" height="24" viewBox="0 0 24 24" fill="none" xmlns="http://www.w3.org/2000/svg">
<path d="M9.74809 10.942C9.88959 11.076 10.0311 11.2175 10.1912 11.3311C11.4665 12.2434 13.2464 12.0572 14.2946 10.8954C14.3468 10.8824 14.5869 11.0909 14.6409 11.1375C15.8027 12.1428 16.4413 13.757 16.337 15.293C16.2328 16.829 15.0356 17.1083 13.6933 17.153C12.9653 17.1772 12.2299 17.1437 11.5056 17.1325C10.0665 17.1102 7.8025 17.2684 7.66658 15.293C7.56232 13.7831 8.18417 12.1857 9.31056 11.1822C9.36456 11.1337 9.66245 10.8787 9.71085 10.8936C9.72947 10.9029 9.73506 10.9271 9.74809 10.9401V10.942Z" fill="#FFFFFF"/>
<path d="M11.7906 6.3601C13.7548 6.19812 15.1158 8.30941 14.1328 10.0297C13.2391 11.5936 10.9882 11.696 9.9735 10.2029C8.95881 8.7097 9.92323 6.51277 11.7906 6.3601Z" fill="#FFFFFF"/>
<path d="M16.877 15.5482C16.9998 14.1667 16.6461 12.7648 15.8455 11.6365L15.5681 11.2679C15.7059 11.3163 15.8381 11.3852 15.9796 11.4261C16.8044 11.6663 17.6589 11.4485 18.2882 10.875C18.3217 10.8453 18.4092 10.7261 18.4372 10.7298C19.0236 11.1562 19.4761 11.7575 19.7311 12.439C19.9732 13.085 20.1444 14.1518 19.8261 14.7867C19.3364 15.7642 17.7706 15.5054 16.877 15.5463V15.5482Z" fill="#FFFFFF"/>
<path d="M8.43181 11.2677L7.98312 11.8933C7.71874 12.3178 7.50835 12.7739 7.36127 13.2524C7.13785 13.9841 7.03918 14.7866 7.14158 15.5462H6.21626C5.48643 15.4922 4.50153 15.4382 4.14779 14.6804C3.86293 14.0716 4.03794 13.0551 4.26881 12.4388C4.52574 11.7537 4.97629 11.1598 5.56276 10.726C5.86252 11.0406 6.24046 11.2975 6.66123 11.4223C7.26073 11.5991 7.86955 11.5321 8.43181 11.2677Z" fill="#FFFFFF"/>
<path d="M16.4061 7.2556C18.387 7.06569 19.3254 9.50466 17.7726 10.659C16.3297 11.7314 14.345 10.3406 14.8347 8.59982C15.0302 7.90909 15.6837 7.32449 16.4061 7.2556Z" fill="#FFFFFF"/>
<path d="M7.08207 7.2556C9.0109 7.0508 10.0088 9.37806 8.5529 10.5938C7.27197 11.6625 5.34314 10.6366 5.46043 8.97777C5.52001 8.13623 6.23308 7.34496 7.08207 7.25373V7.2556Z" fill="#FFFFFF"/>
</svg>
