<svg width="24" height="24" viewBox="0 0 24 24" fill="none" xmlns="http://www.w3.org/2000/svg">
<path d="M14.5757 9.77954C14.478 10.1341 14.3297 10.4795 14.3007 10.8521C14.1361 12.9955 15.4203 14.7499 16.5815 16.3868C16.6231 16.4447 16.6864 16.5044 16.6828 16.5785H15.9611C15.6971 16.5785 15.5813 17.047 15.8906 17.1175H18.9166C19.2277 17.047 19.1138 16.5785 18.8479 16.5785H18.1262L19.007 15.3685H19.083L20 18.494H5.28784C5.49765 18.0436 5.75268 17.5607 6.03665 17.1537C6.28083 16.8046 6.8759 16.1065 7.26659 15.9636C8.18542 15.6272 9.23629 16.177 9.96883 15.231C10.2094 14.9218 10.289 14.3538 10.4753 14.1368C10.6616 13.9197 11.3145 13.605 11.5876 13.3753C12.1284 12.9177 12.4251 12.3027 12.5047 11.5973C12.5408 11.2772 12.4251 11.1795 12.6457 10.8792C12.7633 10.7201 13.8992 9.78135 14.0077 9.78135H14.5738L14.5757 9.77954Z" fill="#0F214D"/>
<path d="M13.0545 9.77954C12.823 10.0599 12.4811 10.2371 12.2532 10.5211C11.877 10.9914 12.0525 11.2844 11.9439 11.8144C11.8408 12.3154 11.5731 12.7296 11.177 13.0407C10.6706 13.4386 10.1985 13.5182 9.89826 14.144C9.67759 14.6016 9.59439 15.1822 8.96676 15.2817C8.02623 15.43 7.357 15.1207 6.51594 15.837C5.67488 16.5532 5.14854 17.5426 4.70179 18.4958H4L6.40018 10.4036L6.49243 10.4289L7.70789 12.2792H6.98621C6.83789 12.2792 6.71671 12.6373 6.90662 12.7513L9.83495 12.7875C10.1171 12.735 10.0303 12.281 9.83495 12.281H9.11327L10.1442 10.8322L10.7321 9.77954H13.0545Z" fill="#0F214D"/>
<path d="M17.2617 8.4628C18.5151 8.39045 19.5968 9.29301 19.9042 10.4832C20.3727 12.2973 19.0198 14.6541 17.8929 16.0124C17.8296 16.0902 17.4534 16.5424 17.4064 16.5442C17.3575 16.5442 17.3377 16.5116 17.3069 16.4827C17.1079 16.2964 16.786 15.8171 16.6124 15.5765C15.6374 14.2182 14.4365 12.1363 14.9158 10.4144C15.2088 9.36355 16.1547 8.52792 17.2599 8.4628H17.2617ZM17.2599 9.63486C15.4964 9.82116 15.679 12.5957 17.6343 12.3552C19.2965 12.1508 19.0415 9.44675 17.2599 9.63486Z" fill="#0F214D"/>
<path d="M8.00991 4.74759C8.6701 4.65715 9.33752 4.80185 9.85482 5.22509C12.1013 7.06999 9.9127 10.6115 8.42954 12.2393C7.49804 11.1378 6.45441 9.68361 6.12703 8.25471C5.79422 6.80773 6.34408 4.97368 8.00991 4.74759ZM8.20526 5.80389C6.56474 6.02636 6.92106 8.69061 8.6918 8.32344C10.2401 8.0033 9.88556 5.57599 8.20526 5.80389Z" fill="#0F214D"/>
</svg>
