<svg width="18" height="18" viewBox="0 0 18 18" fill="none" xmlns="http://www.w3.org/2000/svg">
<path d="M2.83301 14.0532C2.22266 14.0532 1.72461 13.8677 1.33887 13.4966C0.953125 13.1255 0.760254 12.6592 0.760254 12.0977V6.18701C0.760254 5.62061 0.953125 5.1543 1.33887 4.78809C1.72461 4.41699 2.22266 4.23145 2.83301 4.23145H5.22803V5.3374H2.98682C2.65967 5.3374 2.40088 5.43506 2.21045 5.63037C2.02002 5.82568 1.9248 6.07227 1.9248 6.37012V11.9072C1.9248 12.2051 2.02002 12.4541 2.21045 12.6543C2.40088 12.8496 2.65967 12.9473 2.98682 12.9473H5.22803V14.0532H2.83301ZM15.167 14.0532H12.772V12.9473H15.0132C15.3403 12.9473 15.5991 12.8496 15.7896 12.6543C15.98 12.4541 16.0752 12.2051 16.0752 11.9072V6.37012C16.0752 6.07227 15.98 5.82568 15.7896 5.63037C15.5991 5.43506 15.3403 5.3374 15.0132 5.3374H12.772V4.23145H15.167C15.7773 4.23145 16.2754 4.41699 16.6611 4.78809C17.0469 5.1543 17.2397 5.62061 17.2397 6.18701V12.0977C17.2397 12.6592 17.0469 13.1255 16.6611 13.4966C16.2754 13.8677 15.7773 14.0532 15.167 14.0532ZM9 17.8765C8.92188 17.8765 8.85107 17.8618 8.7876 17.8325C8.72412 17.8032 8.65332 17.752 8.5752 17.6787L6.13623 15.4082C6.07275 15.3545 6.02393 15.2935 5.98975 15.2251C5.96045 15.1567 5.9458 15.0811 5.9458 14.998C5.9458 14.8467 5.99707 14.7222 6.09961 14.6245C6.20215 14.5317 6.33154 14.4854 6.48779 14.4854C6.55615 14.4854 6.62451 14.5 6.69287 14.5293C6.76123 14.5586 6.82471 14.6001 6.8833 14.6538L7.83545 15.6133L8.46533 16.2651L8.41406 15.042V12.625C8.41406 12.4688 8.47266 12.3345 8.58984 12.2222C8.70703 12.1099 8.84375 12.0537 9 12.0537C9.15625 12.0537 9.29053 12.1099 9.40283 12.2222C9.52002 12.3345 9.57861 12.4688 9.57861 12.625V15.042L9.53467 16.2651L10.1646 15.6133L11.1167 14.6538C11.2339 14.5415 11.3682 14.4854 11.5195 14.4854C11.6758 14.4854 11.8027 14.5317 11.9004 14.6245C12.0029 14.7222 12.0542 14.8467 12.0542 14.998C12.0542 15.0811 12.0371 15.1567 12.0029 15.2251C11.9736 15.2935 11.9272 15.3545 11.8638 15.4082L9.4248 17.6787C9.27832 17.8105 9.13672 17.8765 9 17.8765ZM9 6.22363C8.84375 6.22363 8.70703 6.16748 8.58984 6.05518C8.47266 5.94287 8.41406 5.81104 8.41406 5.65967V3.23535L8.46533 2.01221L7.83545 2.66406L6.8833 3.62354C6.76611 3.74072 6.63184 3.79932 6.48047 3.79932C6.32422 3.79932 6.19482 3.75049 6.09229 3.65283C5.99463 3.55518 5.9458 3.43066 5.9458 3.2793C5.9458 3.19629 5.96045 3.12305 5.98975 3.05957C6.02393 2.99121 6.07275 2.92773 6.13623 2.86914L8.5752 0.598633C8.72168 0.466797 8.86328 0.400879 9 0.400879C9.13672 0.400879 9.27832 0.466797 9.4248 0.598633L11.8638 2.86914C11.9272 2.92773 11.9736 2.99121 12.0029 3.05957C12.0371 3.12305 12.0542 3.19629 12.0542 3.2793C12.0542 3.43066 12.0029 3.55518 11.9004 3.65283C11.7979 3.75049 11.6685 3.79932 11.5122 3.79932C11.4438 3.79932 11.373 3.78467 11.2998 3.75537C11.2314 3.72119 11.1704 3.67725 11.1167 3.62354L10.1646 2.66406L9.53467 2.01221L9.57861 3.23535V5.65967C9.57861 5.81104 9.52002 5.94287 9.40283 6.05518C9.29053 6.16748 9.15625 6.22363 9 6.22363Z" fill="#3C3C43" fill-opacity="0.3"/>
</svg>
