<svg width="20" height="17" viewBox="0 0 20 17" fill="none" xmlns="http://www.w3.org/2000/svg">
<path d="M11.9482 11.4639H15.603C16.4038 11.4639 17.0068 11.2808 17.4121 10.9146C17.8223 10.5435 18.0273 10.0771 18.0273 9.51562C18.0273 8.88574 17.8271 8.36572 17.4268 7.95557C17.0312 7.54541 16.5015 7.26709 15.8374 7.12061C15.7495 7.10596 15.7104 7.0498 15.7202 6.95215C15.7349 6.78125 15.7446 6.60303 15.7495 6.41748C15.7593 6.22705 15.7593 6.04883 15.7495 5.88281C15.7104 5.15527 15.5103 4.48145 15.1489 3.86133C14.7876 3.24121 14.2993 2.74316 13.6841 2.36719C13.0688 1.98633 12.3608 1.7959 11.5601 1.7959C10.9302 1.7959 10.3809 1.90088 9.91211 2.11084C9.44824 2.3208 9.05029 2.60156 8.71826 2.95312C8.38623 3.2998 8.10059 3.68555 7.86133 4.11035C7.82227 4.17871 7.76123 4.20068 7.67822 4.17627C7.17529 4.02979 6.68457 4.01025 6.20605 4.11768C5.72754 4.22021 5.33203 4.47412 5.01953 4.87939C4.70703 5.27979 4.55078 5.85596 4.55078 6.60791C4.55078 6.71045 4.50439 6.76172 4.41162 6.76172C3.63525 6.76172 3.03467 6.99365 2.60986 7.45752C2.18506 7.9165 1.97266 8.49756 1.97266 9.20068C1.97266 9.62061 2.07275 10.0015 2.27295 10.3433C2.47314 10.6851 2.76855 10.9585 3.15918 11.1636C3.55469 11.3638 4.04053 11.4639 4.6167 11.4639H8.11768V12.6431H4.62402C3.82324 12.6431 3.13721 12.4893 2.56592 12.1816C1.99463 11.8691 1.55518 11.4541 1.24756 10.9365C0.944824 10.4141 0.793457 9.83545 0.793457 9.20068C0.793457 8.62451 0.900879 8.09961 1.11572 7.62598C1.33545 7.15234 1.64551 6.76172 2.0459 6.4541C2.45117 6.1416 2.92969 5.94385 3.48145 5.86084C3.49121 5.34326 3.61328 4.88184 3.84766 4.47656C4.08691 4.07129 4.39453 3.73682 4.77051 3.47314C5.14648 3.20459 5.5542 3.02393 5.99365 2.93115C6.43799 2.83838 6.86768 2.84814 7.28271 2.96045C7.57568 2.53564 7.92725 2.14502 8.3374 1.78857C8.75244 1.43213 9.22607 1.14893 9.7583 0.938965C10.2954 0.724121 10.896 0.616699 11.5601 0.616699C12.312 0.616699 13.0103 0.755859 13.6548 1.03418C14.3042 1.3125 14.8706 1.70312 15.354 2.20605C15.8423 2.70898 16.2207 3.30469 16.4893 3.99316C16.7578 4.67676 16.8921 5.42627 16.8921 6.2417C17.6099 6.53467 18.1738 6.96924 18.584 7.54541C18.999 8.1167 19.2065 8.77344 19.2065 9.51562C19.2065 10.1064 19.0625 10.6387 18.7744 11.1123C18.4912 11.5811 18.0811 11.9546 17.5439 12.2329C17.0068 12.5063 16.3623 12.6431 15.6104 12.6431H11.9482V11.4639ZM10.0366 16.3931C9.87549 16.3931 9.73633 16.3369 9.61914 16.2246C9.50684 16.1123 9.45068 15.9805 9.45068 15.8291V8.69531L9.49463 7.604L9.08447 8.03613L7.94922 9.24463C7.84668 9.36182 7.7124 9.42041 7.54639 9.42041C7.39502 9.42041 7.26807 9.37158 7.16553 9.27393C7.06787 9.17627 7.01904 9.0542 7.01904 8.90771C7.01904 8.76611 7.07764 8.63672 7.19482 8.51953L9.61182 6.19043C9.68506 6.11719 9.75342 6.06836 9.81689 6.04395C9.88525 6.01465 9.9585 6 10.0366 6C10.1099 6 10.1782 6.01465 10.2417 6.04395C10.3101 6.06836 10.3809 6.11719 10.4541 6.19043L12.8711 8.51953C12.9883 8.63672 13.0469 8.76611 13.0469 8.90771C13.0469 9.0542 12.9956 9.17627 12.8931 9.27393C12.7905 9.37158 12.6636 9.42041 12.5122 9.42041C12.3462 9.42041 12.2119 9.36182 12.1094 9.24463L10.9814 8.03613L10.5713 7.604L10.6152 8.69531V15.8291C10.6152 15.9805 10.5566 16.1123 10.4395 16.2246C10.3271 16.3369 10.1929 16.3931 10.0366 16.3931Z" fill="#3C3C43" fill-opacity="0.3"/>
</svg>
