<svg width="20" height="20" viewBox="0 0 20 20" fill="none" xmlns="http://www.w3.org/2000/svg">
<path d="M10.5 5C13.5376 5 16 7.46243 16 10.5C16 13.5376 13.5376 16 10.5 16C7.46243 16 5 13.5376 5 10.5C5 7.46243 7.46243 5 10.5 5Z" fill="#007AFF"/>
<path d="M10 16.8979C9.1071 16.8979 8.26921 16.7287 7.48633 16.3901C6.70345 16.0558 6.01579 15.5924 5.42334 15C4.83089 14.4033 4.3654 13.7157 4.02686 12.937C3.69255 12.1541 3.52539 11.3162 3.52539 10.4233C3.52539 9.53044 3.69255 8.69255 4.02686 7.90967C4.3654 7.12679 4.83089 6.43913 5.42334 5.84668C6.01579 5.25423 6.70345 4.79085 7.48633 4.45654C8.26921 4.118 9.1071 3.94873 10 3.94873C10.8929 3.94873 11.7308 4.118 12.5137 4.45654C13.2965 4.79085 13.9842 5.25423 14.5767 5.84668C15.1691 6.43913 15.6325 7.12679 15.9668 7.90967C16.3053 8.69255 16.4746 9.53044 16.4746 10.4233C16.4746 11.3162 16.3053 12.1541 15.9668 12.937C15.6325 13.7157 15.1691 14.4033 14.5767 15C13.9842 15.5924 13.2965 16.0558 12.5137 16.3901C11.7308 16.7287 10.8929 16.8979 10 16.8979ZM7.51172 13.9399C7.59635 13.9399 7.66618 13.9103 7.72119 13.8511C7.7762 13.7918 7.80371 13.7199 7.80371 13.6353V11.7056C7.86296 11.6802 7.95817 11.6527 8.08936 11.623C8.22054 11.5934 8.38558 11.5786 8.58447 11.5786C8.9738 11.5786 9.32503 11.6273 9.63818 11.7246C9.95557 11.8177 10.2687 11.9129 10.5776 12.0103C10.8908 12.1034 11.2378 12.1499 11.6187 12.1499C11.8683 12.1499 12.0588 12.1372 12.1899 12.1118C12.3211 12.0822 12.446 12.0399 12.5645 11.9849C12.8353 11.8579 12.9707 11.6527 12.9707 11.3691V8.14453C12.9707 7.92448 12.848 7.81445 12.6025 7.81445C12.5052 7.81445 12.3783 7.83773 12.2217 7.88428C12.0651 7.93083 11.8535 7.9541 11.5869 7.9541C11.2145 7.9541 10.8717 7.90544 10.5586 7.80811C10.2497 7.71077 9.93652 7.61344 9.61914 7.51611C9.30176 7.41878 8.94629 7.37012 8.55273 7.37012C8.29883 7.37012 8.10628 7.38493 7.9751 7.41455C7.84391 7.43994 7.72119 7.48014 7.60693 7.53516C7.3361 7.65788 7.20068 7.861 7.20068 8.14453V13.6353C7.20068 13.7157 7.23031 13.7876 7.28955 13.8511C7.35303 13.9103 7.42708 13.9399 7.51172 13.9399Z" fill="white"/>
</svg>
