<svg width="14" height="14" viewBox="0 0 14 14" fill="none" xmlns="http://www.w3.org/2000/svg">
<path d="M7 13.8979C6.1071 13.8979 5.26921 13.7287 4.48633 13.3901C3.70345 13.0558 3.01579 12.5924 2.42334 12C1.83089 11.4033 1.3654 10.7157 1.02686 9.93701C0.692546 9.15413 0.525391 8.31624 0.525391 7.42334C0.525391 6.53044 0.692546 5.69255 1.02686 4.90967C1.3654 4.12679 1.83089 3.43913 2.42334 2.84668C3.01579 2.25423 3.70345 1.79085 4.48633 1.45654C5.26921 1.118 6.1071 0.94873 7 0.94873C7.8929 0.94873 8.73079 1.118 9.51367 1.45654C10.2965 1.79085 10.9842 2.25423 11.5767 2.84668C12.1691 3.43913 12.6325 4.12679 12.9668 4.90967C13.3053 5.69255 13.4746 6.53044 13.4746 7.42334C13.4746 8.31624 13.3053 9.15413 12.9668 9.93701C12.6325 10.7157 12.1691 11.4033 11.5767 12C10.9842 12.5924 10.2965 13.0558 9.51367 13.3901C8.73079 13.7287 7.8929 13.8979 7 13.8979ZM4.51172 10.9399C4.59635 10.9399 4.66618 10.9103 4.72119 10.8511C4.7762 10.7918 4.80371 10.7199 4.80371 10.6353V8.70557C4.86296 8.68018 4.95817 8.65267 5.08936 8.62305C5.22054 8.59342 5.38558 8.57861 5.58447 8.57861C5.9738 8.57861 6.32503 8.62728 6.63818 8.72461C6.95557 8.81771 7.26872 8.91292 7.57764 9.01025C7.89079 9.10335 8.23779 9.1499 8.61865 9.1499C8.86833 9.1499 9.05876 9.13721 9.18994 9.11182C9.32113 9.08219 9.44596 9.03988 9.56445 8.98486C9.83529 8.85791 9.9707 8.65267 9.9707 8.36914V5.14453C9.9707 4.92448 9.84798 4.81445 9.60254 4.81445C9.50521 4.81445 9.37826 4.83773 9.22168 4.88428C9.0651 4.93083 8.85352 4.9541 8.58691 4.9541C8.21452 4.9541 7.87174 4.90544 7.55859 4.80811C7.24967 4.71077 6.93652 4.61344 6.61914 4.51611C6.30176 4.41878 5.94629 4.37012 5.55273 4.37012C5.29883 4.37012 5.10628 4.38493 4.9751 4.41455C4.84391 4.43994 4.72119 4.48014 4.60693 4.53516C4.3361 4.65788 4.20068 4.861 4.20068 5.14453V10.6353C4.20068 10.7157 4.23031 10.7876 4.28955 10.8511C4.35303 10.9103 4.42708 10.9399 4.51172 10.9399Z" fill="#007AFF"/>
</svg>
