<svg width="15" height="14" viewBox="0 0 15 14" fill="none" xmlns="http://www.w3.org/2000/svg">
<path d="M14.9155 7.41699C14.9155 7.66243 14.814 7.88249 14.6108 8.07715C14.4077 8.26758 14.1369 8.41992 13.7983 8.53418C13.4598 8.64421 13.0895 8.69922 12.6875 8.69922H10.1294C9.95166 8.69922 9.81624 8.71826 9.72314 8.75635C9.63428 8.79443 9.53695 8.87272 9.43115 8.99121L5.16553 13.6504C5.02588 13.8027 4.86296 13.8789 4.67676 13.8789H3.94043C3.86003 13.8789 3.79867 13.8472 3.75635 13.7837C3.71826 13.7202 3.72038 13.644 3.7627 13.5552L5.95898 8.69922L2.73438 8.33105L1.58545 10.4385C1.50081 10.5866 1.35693 10.6606 1.15381 10.6606H0.880859C0.800456 10.6606 0.734863 10.6374 0.684082 10.5908C0.633301 10.54 0.60791 10.4744 0.60791 10.394V4.43994C0.60791 4.35531 0.633301 4.28971 0.684082 4.24316C0.734863 4.19238 0.800456 4.16699 0.880859 4.16699H1.15381C1.35693 4.16699 1.50081 4.24316 1.58545 4.39551L2.73438 6.50293L5.95898 6.13477L3.7627 1.27881C3.72038 1.18994 3.71826 1.11377 3.75635 1.05029C3.79867 0.986816 3.86003 0.955078 3.94043 0.955078H4.67676C4.86296 0.955078 5.02588 1.03125 5.16553 1.18359L9.43115 5.83643C9.53695 5.95492 9.63428 6.03532 9.72314 6.07764C9.81624 6.11572 9.95166 6.13477 10.1294 6.13477H12.6875C13.0895 6.13477 13.4598 6.19189 13.7983 6.30615C14.1369 6.41618 14.4077 6.56852 14.6108 6.76318C14.814 6.95361 14.9155 7.17155 14.9155 7.41699Z" fill="#FFFFFF"/>
</svg>
