<svg width="24" height="24" viewBox="0 0 24 24" fill="none" xmlns="http://www.w3.org/2000/svg">
<rect x="3" y="5" width="18" height="14" rx="1.5" stroke="#A0ADCB" stroke-width="1.7" stroke-linecap="round"/>
<path d="M6 8V7.15H5.15V8H6ZM9.39896 12.601C9.7309 12.933 10.2691 12.933 10.601 12.601C10.933 12.2691 10.933 11.7309 10.601 11.399L9.39896 12.601ZM6 12H6.85V8H6H5.15V12H6ZM6 8V8.85H10V8V7.15H6V8ZM6 8L5.39896 8.60104L9.39896 12.601L10 12L10.601 11.399L6.60104 7.39896L6 8Z" fill="#478CF6"/>
<path d="M6 8V7.15H5.15V8H6ZM9.39896 12.601C9.7309 12.933 10.2691 12.933 10.601 12.601C10.933 12.2691 10.933 11.7309 10.601 11.399L9.39896 12.601ZM6 12H6.85V8H6H5.15V12H6ZM6 8V8.85H10V8V7.15H6V8ZM6 8L5.39896 8.60104L9.39896 12.601L10 12L10.601 11.399L6.60104 7.39896L6 8Z" fill="url(#paint0_linear_136_780)" fill-opacity="0.75" style="mix-blend-mode:overlay"/>
<path d="M18 16V16.85H18.85V16H18ZM14.601 11.399C14.2691 11.067 13.7309 11.067 13.399 11.399C13.067 11.7309 13.067 12.2691 13.399 12.601L14.601 11.399ZM18 12H17.15V16H18H18.85V12H18ZM18 16V15.15H14V16V16.85H18V16ZM18 16L18.601 15.399L14.601 11.399L14 12L13.399 12.601L17.399 16.601L18 16Z" fill="#478CF6"/>
<path d="M18 16V16.85H18.85V16H18ZM14.601 11.399C14.2691 11.067 13.7309 11.067 13.399 11.399C13.067 11.7309 13.067 12.2691 13.399 12.601L14.601 11.399ZM18 12H17.15V16H18H18.85V12H18ZM18 16V15.15H14V16V16.85H18V16ZM18 16L18.601 15.399L14.601 11.399L14 12L13.399 12.601L17.399 16.601L18 16Z" fill="url(#paint1_linear_136_780)" fill-opacity="0.75" style="mix-blend-mode:overlay"/>
<defs>
<linearGradient id="paint0_linear_136_780" x1="8" y1="8" x2="8" y2="12" gradientUnits="userSpaceOnUse">
<stop stop-color="#666666"/>
<stop offset="0.677083" stop-color="#666666" stop-opacity="0"/>
</linearGradient>
<linearGradient id="paint1_linear_136_780" x1="16" y1="16" x2="16" y2="12" gradientUnits="userSpaceOnUse">
<stop stop-color="#666666"/>
<stop offset="0.677083" stop-color="#666666" stop-opacity="0"/>
</linearGradient>
</defs>
</svg>
