<svg width="24" height="24" viewBox="0 0 24 24" fill="none" xmlns="http://www.w3.org/2000/svg">
<path d="M20 12C20 16.4183 16.4183 20 12 20C7.58172 20 4 16.4183 4 12C4 7.58172 7.58172 4 12 4C16.4183 4 20 7.58172 20 12Z" fill="#007AFF"/>
<path fill-rule="evenodd" clip-rule="evenodd" d="M20 12C20 16.4183 16.4183 20 12 20C7.58172 20 4 16.4183 4 12C4 7.58172 7.58172 4 12 4C16.4183 4 20 7.58172 20 12ZM12.8889 8.44444C12.8889 8.93536 12.4909 9.33333 12 9.33333C11.5091 9.33333 11.1111 8.93536 11.1111 8.44444C11.1111 7.95352 11.5091 7.55556 12 7.55556C12.4909 7.55556 12.8889 7.95352 12.8889 8.44444ZM12.8887 16.4441V11.1111H11.1113V16.4441H12.8887Z" fill="white"/>
</svg>
