<svg width="24" height="24" viewBox="0 0 24 24" fill="none" xmlns="http://www.w3.org/2000/svg">
<path d="M9.07886 3.53085C9.69085 3.25732 10.4347 3.40629 10.8794 3.96542L10.8803 3.96512C11.0315 4.15284 11.1144 4.37396 11.1636 4.52099C11.2397 4.4231 11.3275 4.33387 11.4254 4.25522L11.4263 4.25492L11.5123 4.19103C11.9586 3.88409 12.6458 3.76168 13.1881 4.18149L13.1872 4.18179C13.483 4.40926 13.7329 4.75477 13.8512 5.11608L15.0778 8.86586C15.3902 9.82718 15.7018 10.7879 16.013 11.7472C16.0779 11.4402 16.1438 11.1279 16.2188 10.7973L16.2188 10.7942L16.2645 10.6345C16.5262 9.85631 17.297 9.44582 18.0997 9.63674L18.1006 9.63644C18.9874 9.84703 19.3295 10.7175 19.1629 11.5246L19.1632 11.5255C19.0598 12.0226 18.9528 12.5207 18.8468 13.0166C18.7406 13.513 18.6348 14.0078 18.5322 14.5009L18.5313 14.5043C18.4099 15.0692 18.2989 15.7295 18.1356 16.3456L18.1337 16.3524C17.8501 17.3774 17.2609 18.2183 16.6243 18.9406L16.6228 18.9422C15.5196 20.1839 14.1188 21.0958 12.2953 21.1369L12.2956 21.1379C10.0832 21.1925 8.56422 20.0379 7.5707 18.264L7.57007 18.2652C7.31783 17.8217 7.12686 17.3465 6.97587 16.8821L4.87198 10.4262C4.82158 10.2711 4.76646 10.1025 4.71793 9.93001L4.71401 9.91793L5.29573 9.76793L4.71493 9.91763C4.50994 9.12316 4.90618 8.27404 5.73293 8.02916L5.88638 7.99265C6.13654 7.94476 6.3818 7.9613 6.6075 8.03146L6.37603 7.3191C6.245 6.91558 6.24024 6.49139 6.40956 6.11401C6.58156 5.73098 6.90465 5.45949 7.30218 5.32494L7.30248 5.32586C7.61517 5.21741 7.93783 5.2109 8.23592 5.30391C8.16712 5.00503 8.1692 4.69782 8.26711 4.40763C8.38601 4.05527 8.63059 3.77504 8.9561 3.5923L8.95765 3.59077L9.07886 3.53085Z" fill="#E8EBF2"/>
<path d="M9.07886 3.53085C9.69085 3.25732 10.4347 3.40629 10.8794 3.96542L10.8803 3.96512C11.0315 4.15284 11.1144 4.37396 11.1636 4.52099C11.2397 4.4231 11.3275 4.33387 11.4254 4.25522L11.4263 4.25492L11.5123 4.19103C11.9586 3.88409 12.6458 3.76168 13.1881 4.18149L13.1872 4.18179C13.483 4.40926 13.7329 4.75477 13.8512 5.11608L15.0778 8.86586C15.3902 9.82718 15.7018 10.7879 16.013 11.7472C16.0779 11.4402 16.1438 11.1279 16.2188 10.7973L16.2188 10.7942L16.2645 10.6345C16.5262 9.85631 17.297 9.44582 18.0997 9.63674L18.1006 9.63644C18.9874 9.84703 19.3295 10.7175 19.1629 11.5246L19.1632 11.5255C19.0598 12.0226 18.9528 12.5207 18.8468 13.0166C18.7406 13.513 18.6348 14.0078 18.5322 14.5009L18.5313 14.5043C18.4099 15.0692 18.2989 15.7295 18.1356 16.3456L18.1337 16.3524C17.8501 17.3774 17.2609 18.2183 16.6243 18.9406L16.6228 18.9422C15.5196 20.1839 14.1188 21.0958 12.2953 21.1369L12.2956 21.1379C10.0832 21.1925 8.56422 20.0379 7.5707 18.264L7.57007 18.2652C7.31783 17.8217 7.12686 17.3465 6.97587 16.8821L4.87198 10.4262C4.82158 10.2711 4.76646 10.1025 4.71793 9.93001L4.71401 9.91793L5.29573 9.76793L4.71493 9.91763C4.50994 9.12316 4.90618 8.27404 5.73293 8.02916L5.88638 7.99265C6.13654 7.94476 6.3818 7.9613 6.6075 8.03146L6.37603 7.3191C6.245 6.91558 6.24024 6.49139 6.40956 6.11401C6.58156 5.73098 6.90465 5.45949 7.30218 5.32494L7.30248 5.32586C7.61517 5.21741 7.93783 5.2109 8.23592 5.30391C8.16712 5.00503 8.1692 4.69782 8.26711 4.40763C8.38601 4.05527 8.63059 3.77504 8.9561 3.5923L8.95765 3.59077L9.07886 3.53085Z" stroke="#478CF6" stroke-width="1.2"/>
<path d="M9.07886 3.53085C9.69085 3.25732 10.4347 3.40629 10.8794 3.96542L10.8803 3.96512C11.0315 4.15284 11.1144 4.37396 11.1636 4.52099C11.2397 4.4231 11.3275 4.33387 11.4254 4.25522L11.4263 4.25492L11.5123 4.19103C11.9586 3.88409 12.6458 3.76168 13.1881 4.18149L13.1872 4.18179C13.483 4.40926 13.7329 4.75477 13.8512 5.11608L15.0778 8.86586C15.3902 9.82718 15.7018 10.7879 16.013 11.7472C16.0779 11.4402 16.1438 11.1279 16.2188 10.7973L16.2188 10.7942L16.2645 10.6345C16.5262 9.85631 17.297 9.44582 18.0997 9.63674L18.1006 9.63644C18.9874 9.84703 19.3295 10.7175 19.1629 11.5246L19.1632 11.5255C19.0598 12.0226 18.9528 12.5207 18.8468 13.0166C18.7406 13.513 18.6348 14.0078 18.5322 14.5009L18.5313 14.5043C18.4099 15.0692 18.2989 15.7295 18.1356 16.3456L18.1337 16.3524C17.8501 17.3774 17.2609 18.2183 16.6243 18.9406L16.6228 18.9422C15.5196 20.1839 14.1188 21.0958 12.2953 21.1369L12.2956 21.1379C10.0832 21.1925 8.56422 20.0379 7.5707 18.264L7.57007 18.2652C7.31783 17.8217 7.12686 17.3465 6.97587 16.8821L4.87198 10.4262C4.82158 10.2711 4.76646 10.1025 4.71793 9.93001L4.71401 9.91793L5.29573 9.76793L4.71493 9.91763C4.50994 9.12316 4.90618 8.27404 5.73293 8.02916L5.88638 7.99265C6.13654 7.94476 6.3818 7.9613 6.6075 8.03146L6.37603 7.3191C6.245 6.91558 6.24024 6.49139 6.40956 6.11401C6.58156 5.73098 6.90465 5.45949 7.30218 5.32494L7.30248 5.32586C7.61517 5.21741 7.93783 5.2109 8.23592 5.30391C8.16712 5.00503 8.1692 4.69782 8.26711 4.40763C8.38601 4.05527 8.63059 3.77504 8.9561 3.5923L8.95765 3.59077L9.07886 3.53085Z" stroke="url(#paint0_linear_103_990)" stroke-opacity="0.75" stroke-width="1.2" style="mix-blend-mode:overlay"/>
<defs>
<linearGradient id="paint0_linear_103_990" x1="9.85106" y1="3.90116" x2="15.0353" y2="19.8558" gradientUnits="userSpaceOnUse">
<stop stop-color="#666666"/>
<stop offset="0.677083" stop-color="#666666" stop-opacity="0"/>
</linearGradient>
</defs>
</svg>
