<svg width="24" height="24" viewBox="0 0 24 24" fill="none" xmlns="http://www.w3.org/2000/svg">
<path d="M11.8949 4.00108C16.2996 3.92898 19.9268 7.46215 19.9989 11.8888C20.071 16.281 16.5379 19.9301 12.1488 19.9991C7.6971 20.0681 4.06988 16.5537 4.00091 12.1114C3.93507 7.69727 7.45884 4.07319 11.8949 4.00108ZM10.3023 11.5095C10.481 11.3182 10.6942 11.2273 10.9293 11.174C11.1049 11.1364 11.1676 11.174 11.1864 11.3558C11.1926 11.4154 11.1958 11.4781 11.1895 11.5377C11.1644 11.7477 11.1519 11.9578 11.108 12.1647C10.9418 12.9578 10.7663 13.7479 10.597 14.541C10.4967 15.0207 10.3963 15.5003 10.4152 15.9925C10.4371 16.5443 10.691 16.9017 11.2115 17.0741C12.0297 17.3437 12.7821 17.2215 13.4248 16.6352C13.7289 16.3593 13.895 15.9737 14.08 15.6132C14.0894 15.5944 14.0863 15.5505 14.0706 15.5411C13.9327 15.4376 13.7916 15.3373 13.6536 15.237C13.547 15.4502 13.4593 15.6571 13.3464 15.8515C13.221 16.0678 13.0674 16.2684 12.8166 16.3593C12.6379 16.422 12.5595 16.3813 12.4968 16.2026C12.3777 15.8703 12.3495 15.5223 12.4028 15.1774C12.4717 14.7229 12.5658 14.2714 12.6567 13.82C12.7758 13.2212 12.9232 12.6287 13.0141 12.0236C13.1081 11.3966 12.9921 10.8072 12.5909 10.2837C12.1582 9.71936 11.55 9.72877 11.0923 9.98584C10.6252 10.246 10.2741 10.6348 9.93237 11.0361C9.91983 11.0517 9.92296 11.0988 9.9355 11.1176C10.0515 11.2461 10.1738 11.3715 10.3023 11.5095ZM10.8948 7.97002C10.9074 8.06407 10.9105 8.16126 10.9324 8.25531C11.0234 8.65972 11.2303 8.97636 11.6566 9.08609C12.1018 9.19895 12.6222 8.99204 12.8793 8.6127C13.1646 8.19261 13.1771 7.60322 12.9075 7.22075C12.6285 6.8226 12.0391 6.67839 11.5469 6.8853C11.1456 7.05773 10.8948 7.47469 10.8917 7.96688L10.8948 7.97002Z" fill="#478CF6"/>
<path d="M11.8949 4.00108C16.2996 3.92898 19.9268 7.46215 19.9989 11.8888C20.071 16.281 16.5379 19.9301 12.1488 19.9991C7.6971 20.0681 4.06988 16.5537 4.00091 12.1114C3.93507 7.69727 7.45884 4.07319 11.8949 4.00108ZM10.3023 11.5095C10.481 11.3182 10.6942 11.2273 10.9293 11.174C11.1049 11.1364 11.1676 11.174 11.1864 11.3558C11.1926 11.4154 11.1958 11.4781 11.1895 11.5377C11.1644 11.7477 11.1519 11.9578 11.108 12.1647C10.9418 12.9578 10.7663 13.7479 10.597 14.541C10.4967 15.0207 10.3963 15.5003 10.4152 15.9925C10.4371 16.5443 10.691 16.9017 11.2115 17.0741C12.0297 17.3437 12.7821 17.2215 13.4248 16.6352C13.7289 16.3593 13.895 15.9737 14.08 15.6132C14.0894 15.5944 14.0863 15.5505 14.0706 15.5411C13.9327 15.4376 13.7916 15.3373 13.6536 15.237C13.547 15.4502 13.4593 15.6571 13.3464 15.8515C13.221 16.0678 13.0674 16.2684 12.8166 16.3593C12.6379 16.422 12.5595 16.3813 12.4968 16.2026C12.3777 15.8703 12.3495 15.5223 12.4028 15.1774C12.4717 14.7229 12.5658 14.2714 12.6567 13.82C12.7758 13.2212 12.9232 12.6287 13.0141 12.0236C13.1081 11.3966 12.9921 10.8072 12.5909 10.2837C12.1582 9.71936 11.55 9.72877 11.0923 9.98584C10.6252 10.246 10.2741 10.6348 9.93237 11.0361C9.91983 11.0517 9.92296 11.0988 9.9355 11.1176C10.0515 11.2461 10.1738 11.3715 10.3023 11.5095ZM10.8948 7.97002C10.9074 8.06407 10.9105 8.16126 10.9324 8.25531C11.0234 8.65972 11.2303 8.97636 11.6566 9.08609C12.1018 9.19895 12.6222 8.99204 12.8793 8.6127C13.1646 8.19261 13.1771 7.60322 12.9075 7.22075C12.6285 6.8226 12.0391 6.67839 11.5469 6.8853C11.1456 7.05773 10.8948 7.47469 10.8917 7.96688L10.8948 7.97002Z" fill="url(#paint0_linear_103_991)" fill-opacity="0.75" style="mix-blend-mode:overlay"/>
<path d="M10.3023 11.5096C10.1738 11.3716 10.0515 11.2462 9.93552 11.1177C9.91985 11.102 9.91985 11.0519 9.93239 11.0362C10.2741 10.6349 10.6284 10.2462 11.0923 9.98597C11.5501 9.7289 12.1582 9.71949 12.5909 10.2838C12.9922 10.8073 13.1082 11.3967 13.0141 12.0237C12.9232 12.6257 12.7758 13.2213 12.6567 13.8201C12.5689 14.2715 12.4718 14.723 12.4028 15.1776C12.3526 15.5224 12.3808 15.8704 12.4968 16.2027C12.5595 16.3814 12.6379 16.4222 12.8166 16.3595C13.0674 16.2685 13.221 16.0679 13.3464 15.8516C13.4593 15.6572 13.5471 15.4503 13.6537 15.2371C13.7916 15.3374 13.9327 15.4378 14.0706 15.5412C14.0832 15.5506 14.0894 15.5945 14.08 15.6133C13.8951 15.977 13.7289 16.3595 13.4248 16.6353C12.779 17.2216 12.0297 17.3439 11.2115 17.0742C10.6911 16.9018 10.434 16.5444 10.4152 15.9927C10.3964 15.4973 10.4967 15.0208 10.597 14.5412C10.7663 13.748 10.9419 12.958 11.108 12.1648C11.1519 11.9579 11.1644 11.7478 11.1895 11.5378C11.1958 11.4782 11.1895 11.4155 11.1864 11.356C11.1676 11.1773 11.1049 11.1365 10.9293 11.1741C10.6942 11.2274 10.481 11.3152 10.3023 11.5096Z" fill="#E8EBF2"/>
<path d="M10.895 7.97017C10.8982 7.47797 11.149 7.05788 11.5502 6.88859C12.0393 6.67854 12.6287 6.82275 12.9108 7.22403C13.1804 7.60651 13.1679 8.19589 12.8826 8.61598C12.6256 8.99532 12.1051 9.20223 11.66 9.08937C11.2336 8.97964 11.0267 8.66614 10.9358 8.25859C10.9138 8.16454 10.9107 8.06735 10.8982 7.9733L10.895 7.97017Z" fill="#E8EBF2"/>
<defs>
<linearGradient id="paint0_linear_103_991" x1="12" y1="4" x2="12" y2="20.0001" gradientUnits="userSpaceOnUse">
<stop stop-color="#666666"/>
<stop offset="0.677083" stop-color="#666666" stop-opacity="0"/>
</linearGradient>
</defs>
</svg>
