<svg width="24" height="24" viewBox="0 0 24 24" fill="none" xmlns="http://www.w3.org/2000/svg">
<path d="M13.4569 14.5237C10.9245 15.9858 8.39039 17.4489 5.85802 18.9109C5.45687 19.1425 5.32511 19.1102 5.09656 18.7144C4.15178 17.0779 3.207 15.4415 2.26119 13.8034C2.05816 13.4517 2.09645 13.2976 2.44635 13.0956C4.24609 12.0542 6.04509 11.0155 7.84408 9.97687C10.4206 8.4893 12.9972 7.00172 15.5765 5.51489C16.3028 5.09556 17.0274 4.67724 17.7537 4.2579C18.0912 4.06303 18.2564 4.10431 18.4472 4.43477C19.4012 6.08709 20.3541 7.73764 21.3081 9.38996C21.5122 9.74339 21.4696 9.90228 21.1268 10.1002C18.5714 11.5755 16.0161 13.0509 13.4607 14.5262L13.4569 14.5237ZM5.07206 12.4727C5.26285 12.8031 5.44596 13.1121 5.62097 13.4234C5.74192 13.6411 5.68196 13.8759 5.49464 13.9841C5.31792 14.0861 5.0848 14.0252 4.95537 13.8336C4.86008 13.6931 4.78042 13.5388 4.69574 13.3921C4.59575 13.2189 4.49474 13.044 4.39986 12.8796L3.08154 13.6407L5.66592 18.117L20.4926 9.55684L17.9041 5.07349L16.5858 5.83462C16.7501 6.11914 16.909 6.39027 17.0643 6.66343C17.1113 6.74472 17.1602 6.82955 17.1766 6.91908C17.2159 7.11784 17.1418 7.28319 16.9515 7.3577C16.7433 7.43784 16.5648 7.37359 16.4495 7.1739C16.2679 6.85934 16.0853 6.54301 15.9037 6.22846L14.6702 6.94061C14.7906 7.14914 14.9119 7.34298 15.0174 7.54601C15.1435 7.78894 15.0824 8.00561 14.8688 8.11717C14.6668 8.22437 14.4726 8.1574 14.3344 7.92618C14.2176 7.73206 14.1069 7.5321 13.9947 7.3377L12.7576 8.0519C12.9168 8.32758 13.0675 8.58457 13.2147 8.8436C13.2657 8.93196 13.3142 9.02413 13.3402 9.12222C13.3925 9.32295 13.3127 9.48681 13.1301 9.56634C12.9376 9.6492 12.7557 9.60344 12.6427 9.41184C12.4524 9.09048 12.2693 8.76505 12.0734 8.42575C11.6864 8.64919 11.3281 8.84897 10.9818 9.06539C10.9323 9.09396 10.8982 9.22674 10.9208 9.28207C10.9942 9.45411 11.105 9.60927 11.1882 9.77797C11.3026 10.0088 11.2554 10.1963 11.0668 10.3146C10.8667 10.4372 10.6662 10.388 10.5195 10.1664C10.415 10.01 10.3307 9.8395 10.2255 9.68583C10.1934 9.63839 10.0851 9.58546 10.0515 9.60485C9.67075 9.81055 9.29991 10.0294 8.90583 10.2569C9.10785 10.6068 9.29578 10.9201 9.47236 11.2422C9.57827 11.4379 9.52308 11.6606 9.3471 11.7599C9.16128 11.8625 8.97969 11.8377 8.83898 11.6715C8.76724 11.5881 8.71466 11.4888 8.65677 11.3927C8.51523 11.1516 8.37824 10.9102 8.2354 10.6628L6.99837 11.377C7.1259 11.5979 7.25058 11.8016 7.36363 12.0097C7.49661 12.2604 7.36699 12.5379 7.09916 12.5841C6.89557 12.6192 6.75311 12.5153 6.65442 12.3484C6.5394 12.1533 6.42792 11.9561 6.31467 11.76L5.08117 12.4721L5.07206 12.4727Z" fill="#478CF6"/>
<path d="M13.4569 14.5237C10.9245 15.9858 8.39039 17.4489 5.85802 18.9109C5.45687 19.1425 5.32511 19.1102 5.09656 18.7144C4.15178 17.0779 3.207 15.4415 2.26119 13.8034C2.05816 13.4517 2.09645 13.2976 2.44635 13.0956C4.24609 12.0542 6.04509 11.0155 7.84408 9.97687C10.4206 8.4893 12.9972 7.00172 15.5765 5.51489C16.3028 5.09556 17.0274 4.67724 17.7537 4.2579C18.0912 4.06303 18.2564 4.10431 18.4472 4.43477C19.4012 6.08709 20.3541 7.73764 21.3081 9.38996C21.5122 9.74339 21.4696 9.90228 21.1268 10.1002C18.5714 11.5755 16.0161 13.0509 13.4607 14.5262L13.4569 14.5237ZM5.07206 12.4727C5.26285 12.8031 5.44596 13.1121 5.62097 13.4234C5.74192 13.6411 5.68196 13.8759 5.49464 13.9841C5.31792 14.0861 5.0848 14.0252 4.95537 13.8336C4.86008 13.6931 4.78042 13.5388 4.69574 13.3921C4.59575 13.2189 4.49474 13.044 4.39986 12.8796L3.08154 13.6407L5.66592 18.117L20.4926 9.55684L17.9041 5.07349L16.5858 5.83462C16.7501 6.11914 16.909 6.39027 17.0643 6.66343C17.1113 6.74472 17.1602 6.82955 17.1766 6.91908C17.2159 7.11784 17.1418 7.28319 16.9515 7.3577C16.7433 7.43784 16.5648 7.37359 16.4495 7.1739C16.2679 6.85934 16.0853 6.54301 15.9037 6.22846L14.6702 6.94061C14.7906 7.14914 14.9119 7.34298 15.0174 7.54601C15.1435 7.78894 15.0824 8.00561 14.8688 8.11717C14.6668 8.22437 14.4726 8.1574 14.3344 7.92618C14.2176 7.73206 14.1069 7.5321 13.9947 7.3377L12.7576 8.0519C12.9168 8.32758 13.0675 8.58457 13.2147 8.8436C13.2657 8.93196 13.3142 9.02413 13.3402 9.12222C13.3925 9.32295 13.3127 9.48681 13.1301 9.56634C12.9376 9.6492 12.7557 9.60344 12.6427 9.41184C12.4524 9.09048 12.2693 8.76505 12.0734 8.42575C11.6864 8.64919 11.3281 8.84897 10.9818 9.06539C10.9323 9.09396 10.8982 9.22674 10.9208 9.28207C10.9942 9.45411 11.105 9.60927 11.1882 9.77797C11.3026 10.0088 11.2554 10.1963 11.0668 10.3146C10.8667 10.4372 10.6662 10.388 10.5195 10.1664C10.415 10.01 10.3307 9.8395 10.2255 9.68583C10.1934 9.63839 10.0851 9.58546 10.0515 9.60485C9.67075 9.81055 9.29991 10.0294 8.90583 10.2569C9.10785 10.6068 9.29578 10.9201 9.47236 11.2422C9.57827 11.4379 9.52308 11.6606 9.3471 11.7599C9.16128 11.8625 8.97969 11.8377 8.83898 11.6715C8.76724 11.5881 8.71466 11.4888 8.65677 11.3927C8.51523 11.1516 8.37824 10.9102 8.2354 10.6628L6.99837 11.377C7.1259 11.5979 7.25058 11.8016 7.36363 12.0097C7.49661 12.2604 7.36699 12.5379 7.09916 12.5841C6.89557 12.6192 6.75311 12.5153 6.65442 12.3484C6.5394 12.1533 6.42792 11.9561 6.31467 11.76L5.08117 12.4721L5.07206 12.4727Z" fill="url(#paint0_linear_103_997)" fill-opacity="0.75" style="mix-blend-mode:overlay"/>
<path d="M5.07178 12.4728L6.30527 11.7606C6.41955 11.9586 6.53178 12.1529 6.64503 12.3491C6.74474 12.5177 6.88618 12.6199 7.08977 12.5848C7.3576 12.5385 7.48545 12.2621 7.35424 12.0103C7.24193 11.7995 7.11651 11.5986 6.98897 11.3777L8.226 10.6635C8.36884 10.9109 8.5076 11.1512 8.64738 11.3933C8.70248 11.4888 8.75961 11.5877 8.82959 11.6722C8.9703 11.8384 9.15012 11.8641 9.33771 11.7605C9.5147 11.6631 9.56888 11.4386 9.46297 11.2429C9.28741 10.9225 9.09846 10.6075 8.89644 10.2575C9.29052 10.03 9.66312 9.81019 10.0421 9.60551C10.0775 9.58511 10.184 9.63905 10.2161 9.68649C10.3241 9.84091 10.4056 10.0106 10.5101 10.1671C10.6569 10.3887 10.859 10.4369 11.0574 10.3153C11.2452 10.1998 11.2932 10.0095 11.1788 9.77864C11.0956 9.60993 10.9848 9.45477 10.9114 9.28273C10.8878 9.22564 10.9239 9.09639 10.9724 9.06606C11.3187 8.84963 11.677 8.64985 12.064 8.42641C12.2599 8.76571 12.4431 9.09115 12.6333 9.4125C12.7473 9.60587 12.9292 9.65163 13.1207 9.567C13.3033 9.48747 13.3831 9.32361 13.3308 9.12288C13.3048 9.02479 13.2563 8.93263 13.2053 8.84427C13.0599 8.58422 12.9074 8.32825 12.7482 8.05257L13.9853 7.33837C14.0975 7.53276 14.209 7.72994 14.325 7.92684C14.4632 8.15807 14.6574 8.22504 14.8594 8.11783C15.073 8.00627 15.1341 7.7896 15.008 7.54667C14.9025 7.34365 14.7812 7.1498 14.6608 6.94128L15.8943 6.22912C16.0769 6.54544 16.2585 6.86 16.4401 7.17456C16.5554 7.37425 16.7349 7.44027 16.9421 7.35836C17.1324 7.28386 17.2065 7.1185 17.1672 6.91974C17.1491 6.83123 17.1001 6.74641 17.0549 6.6641C16.9013 6.38991 16.7407 6.11981 16.5764 5.83529L17.8947 5.07416L20.4822 9.55574L5.66258 18.1118L3.08023 13.6391L4.39679 12.879C4.49269 13.0451 4.59268 13.2183 4.69267 13.3915C4.77837 13.5399 4.85701 13.6924 4.9523 13.833C5.08173 14.0245 5.31485 14.0855 5.49157 13.9835C5.67889 13.8753 5.73884 13.6404 5.6179 13.4228C5.44466 13.1105 5.2608 12.8043 5.06899 12.472L5.07178 12.4728Z" fill="#E8EBF2"/>
<defs>
<linearGradient id="paint0_linear_103_997" x1="10.0981" y1="8.6755" x2="13.4722" y2="14.5196" gradientUnits="userSpaceOnUse">
<stop stop-color="#666666"/>
<stop offset="0.677083" stop-color="#666666" stop-opacity="0"/>
</linearGradient>
</defs>
</svg>
