<svg width="24" height="24" viewBox="0 0 24 24" fill="none" xmlns="http://www.w3.org/2000/svg">
<path d="M6.73926 5.6748C6.99464 5.62343 7.25381 5.6553 7.50488 5.74707L7.50391 5.74805L15.9512 8.8125V8.81348L16.0586 8.85645C16.1677 8.90474 16.2819 8.97093 16.3789 9.06836C16.5183 9.20842 16.6008 9.39043 16.6143 9.60938L16.6133 9.74316C16.6022 9.87342 16.5623 9.99415 16.4951 10.1025C16.4091 10.2412 16.2897 10.3415 16.1729 10.417H16.1719C15.4284 10.8962 14.6852 11.3783 13.9414 11.8604C14.0627 11.9785 14.1833 12.0945 14.3008 12.2119L16.8896 14.7979C17.1917 15.0999 17.3775 15.4562 17.376 15.8467C17.3744 16.2366 17.1866 16.5914 16.8838 16.8926L16.8828 16.8916C16.4232 17.3509 15.8027 17.4968 15.2305 17.1836V17.1826C15.0713 17.0966 14.9423 16.9794 14.8438 16.8809V16.8818C13.8581 15.9014 12.8775 14.9179 11.8955 13.9355L11.2471 14.9268C10.9606 15.3649 10.6746 15.7987 10.3896 16.2373C10.3091 16.3624 10.201 16.4826 10.0557 16.5664C9.90502 16.6533 9.7332 16.6898 9.5498 16.6719L9.54688 16.6709C9.36146 16.6508 9.19765 16.5799 9.06641 16.46C8.93944 16.3439 8.85967 16.1977 8.80762 16.0527V16.0518C7.79022 13.198 6.76472 10.349 5.74414 7.49414L5.68848 7.30566C5.64406 7.1152 5.63609 6.92126 5.67578 6.72949C5.72886 6.47321 5.86129 6.24501 6.05859 6.05078L6.21191 5.91699C6.37044 5.79621 6.5469 5.7135 6.73926 5.6748Z" fill="#E8EBF2"/>
<path d="M6.73926 5.6748C6.99464 5.62343 7.25381 5.6553 7.50488 5.74707L7.50391 5.74805L15.9512 8.8125V8.81348L16.0586 8.85645C16.1677 8.90474 16.2819 8.97093 16.3789 9.06836C16.5183 9.20842 16.6008 9.39043 16.6143 9.60938L16.6133 9.74316C16.6022 9.87342 16.5623 9.99415 16.4951 10.1025C16.4091 10.2412 16.2897 10.3415 16.1729 10.417H16.1719C15.4284 10.8962 14.6852 11.3783 13.9414 11.8604C14.0627 11.9785 14.1833 12.0945 14.3008 12.2119L16.8896 14.7979C17.1917 15.0999 17.3775 15.4562 17.376 15.8467C17.3744 16.2366 17.1866 16.5914 16.8838 16.8926L16.8828 16.8916C16.4232 17.3509 15.8027 17.4968 15.2305 17.1836V17.1826C15.0713 17.0966 14.9423 16.9794 14.8438 16.8809V16.8818C13.8581 15.9014 12.8775 14.9179 11.8955 13.9355L11.2471 14.9268C10.9606 15.3649 10.6746 15.7987 10.3896 16.2373C10.3091 16.3624 10.201 16.4826 10.0557 16.5664C9.90502 16.6533 9.7332 16.6898 9.5498 16.6719L9.54688 16.6709C9.36146 16.6508 9.19765 16.5799 9.06641 16.46C8.93944 16.3439 8.85967 16.1977 8.80762 16.0527V16.0518C7.79022 13.198 6.76472 10.349 5.74414 7.49414L5.68848 7.30566C5.64406 7.1152 5.63609 6.92126 5.67578 6.72949C5.72886 6.47321 5.86129 6.24501 6.05859 6.05078L6.21191 5.91699C6.37044 5.79621 6.5469 5.7135 6.73926 5.6748Z" stroke="#478CF6" stroke-width="0.7" stroke-linejoin="round"/>
<path d="M6.73926 5.6748C6.99464 5.62343 7.25381 5.6553 7.50488 5.74707L7.50391 5.74805L15.9512 8.8125V8.81348L16.0586 8.85645C16.1677 8.90474 16.2819 8.97093 16.3789 9.06836C16.5183 9.20842 16.6008 9.39043 16.6143 9.60938L16.6133 9.74316C16.6022 9.87342 16.5623 9.99415 16.4951 10.1025C16.4091 10.2412 16.2897 10.3415 16.1729 10.417H16.1719C15.4284 10.8962 14.6852 11.3783 13.9414 11.8604C14.0627 11.9785 14.1833 12.0945 14.3008 12.2119L16.8896 14.7979C17.1917 15.0999 17.3775 15.4562 17.376 15.8467C17.3744 16.2366 17.1866 16.5914 16.8838 16.8926L16.8828 16.8916C16.4232 17.3509 15.8027 17.4968 15.2305 17.1836V17.1826C15.0713 17.0966 14.9423 16.9794 14.8438 16.8809V16.8818C13.8581 15.9014 12.8775 14.9179 11.8955 13.9355L11.2471 14.9268C10.9606 15.3649 10.6746 15.7987 10.3896 16.2373C10.3091 16.3624 10.201 16.4826 10.0557 16.5664C9.90502 16.6533 9.7332 16.6898 9.5498 16.6719L9.54688 16.6709C9.36146 16.6508 9.19765 16.5799 9.06641 16.46C8.93944 16.3439 8.85967 16.1977 8.80762 16.0527V16.0518C7.79022 13.198 6.76472 10.349 5.74414 7.49414L5.68848 7.30566C5.64406 7.1152 5.63609 6.92126 5.67578 6.72949C5.72886 6.47321 5.86129 6.24501 6.05859 6.05078L6.21191 5.91699C6.37044 5.79621 6.5469 5.7135 6.73926 5.6748Z" stroke="url(#paint0_linear_103_992)" stroke-opacity="0.75" stroke-width="0.7" stroke-linejoin="round" style="mix-blend-mode:overlay"/>
<defs>
<linearGradient id="paint0_linear_103_992" x1="11.5132" y1="6" x2="11.5132" y2="17" gradientUnits="userSpaceOnUse">
<stop stop-color="#666666"/>
<stop offset="0.677083" stop-color="#666666" stop-opacity="0"/>
</linearGradient>
</defs>
</svg>
