<svg width="14" height="12" viewBox="0 0 14 12" fill="none" xmlns="http://www.w3.org/2000/svg">
<path d="M13.7969 6.21191C13.7969 6.39746 13.7236 6.56104 13.5771 6.70264L8.70654 11.5586C8.56494 11.6953 8.40625 11.7637 8.23047 11.7637C8.0498 11.7637 7.89844 11.7026 7.77637 11.5806C7.6543 11.4634 7.59326 11.3145 7.59326 11.1338C7.59326 11.0459 7.60791 10.9629 7.63721 10.8848C7.6665 10.8018 7.71045 10.731 7.76904 10.6724L9.40967 9.00244L12.3174 6.3584L12.4639 6.71729L10.1055 6.86377H0.840332C0.649902 6.86377 0.493652 6.80273 0.371582 6.68066C0.254395 6.55859 0.195801 6.40234 0.195801 6.21191C0.195801 6.02148 0.254395 5.86523 0.371582 5.74316C0.493652 5.62109 0.649902 5.56006 0.840332 5.56006H10.1055L12.4639 5.70654L12.3174 6.07275L9.40967 3.42139L7.76904 1.75146C7.71045 1.69287 7.6665 1.62451 7.63721 1.54639C7.60791 1.46338 7.59326 1.37793 7.59326 1.29004C7.59326 1.10938 7.6543 0.960449 7.77637 0.843262C7.89844 0.721191 8.0498 0.660156 8.23047 0.660156C8.31836 0.660156 8.40137 0.677246 8.47949 0.711426C8.5625 0.745605 8.64307 0.801758 8.72119 0.879883L13.5771 5.72119C13.7236 5.86279 13.7969 6.02637 13.7969 6.21191Z" fill="#3C3C43" fill-opacity="0.3"/>
</svg>
