<svg width="24" height="24" viewBox="0 0 24 24" fill="none" xmlns="http://www.w3.org/2000/svg">
<path d="M12.0016 10.0036C11.4831 10.0036 10.9886 10.0036 10.4974 10.0036C8.68975 10.0036 6.88206 10.0036 5.07438 10.0036C4.42975 10.0002 4 10.4401 4 11.0882C4 11.6919 4 12.299 4 12.9027C4 13.5882 4.40588 13.9975 5.09143 14.0009C7.32205 14.0009 9.54925 14.0009 11.7799 14.0009C11.8447 14.0009 11.9129 14.0009 12.0016 14.0009C12.0016 14.0896 12.0016 14.1544 12.0016 14.2192C12.0016 15.1299 12.0016 16.0406 12.0016 16.9478C12.0016 17.2855 12.1107 17.572 12.3802 17.7834C12.7792 18.0938 13.2704 18.0699 13.6899 17.7255C14.048 17.4287 14.4027 17.1286 14.7574 16.8318C16.3264 15.5289 17.8953 14.226 19.4642 12.9266C19.6825 12.7458 19.8872 12.548 19.9622 12.2649C20.0679 11.8658 19.9486 11.5213 19.645 11.2553C19.1641 10.8324 18.6695 10.4231 18.175 10.0138C17.0938 9.11678 16.0126 8.22317 14.9314 7.32614C14.5085 6.97484 14.0923 6.61671 13.666 6.26882C13.3454 6.00619 12.9839 5.9141 12.5916 6.09146C12.1892 6.27564 11.9982 6.60307 11.9947 7.03964C11.9947 7.94349 11.9947 8.84733 11.9947 9.75117C11.9947 9.8228 11.9947 9.89783 11.9947 10.0002L12.0016 10.0036Z" fill="#478CF6"/>
<path d="M12.0016 10.0036C11.4831 10.0036 10.9886 10.0036 10.4974 10.0036C8.68975 10.0036 6.88206 10.0036 5.07438 10.0036C4.42975 10.0002 4 10.4401 4 11.0882C4 11.6919 4 12.299 4 12.9027C4 13.5882 4.40588 13.9975 5.09143 14.0009C7.32205 14.0009 9.54925 14.0009 11.7799 14.0009C11.8447 14.0009 11.9129 14.0009 12.0016 14.0009C12.0016 14.0896 12.0016 14.1544 12.0016 14.2192C12.0016 15.1299 12.0016 16.0406 12.0016 16.9478C12.0016 17.2855 12.1107 17.572 12.3802 17.7834C12.7792 18.0938 13.2704 18.0699 13.6899 17.7255C14.048 17.4287 14.4027 17.1286 14.7574 16.8318C16.3264 15.5289 17.8953 14.226 19.4642 12.9266C19.6825 12.7458 19.8872 12.548 19.9622 12.2649C20.0679 11.8658 19.9486 11.5213 19.645 11.2553C19.1641 10.8324 18.6695 10.4231 18.175 10.0138C17.0938 9.11678 16.0126 8.22317 14.9314 7.32614C14.5085 6.97484 14.0923 6.61671 13.666 6.26882C13.3454 6.00619 12.9839 5.9141 12.5916 6.09146C12.1892 6.27564 11.9982 6.60307 11.9947 7.03964C11.9947 7.94349 11.9947 8.84733 11.9947 9.75117C11.9947 9.8228 11.9947 9.89783 11.9947 10.0002L12.0016 10.0036Z" fill="url(#paint0_linear_103_996)" fill-opacity="0.75" style="mix-blend-mode:overlay"/>
<defs>
<linearGradient id="paint0_linear_103_996" x1="12" y1="18.001" x2="12" y2="6.00001" gradientUnits="userSpaceOnUse">
<stop stop-color="#666666"/>
<stop offset="0.677083" stop-color="#666666" stop-opacity="0"/>
</linearGradient>
</defs>
</svg>
