<svg width="24" height="24" viewBox="0 0 24 24" fill="none" xmlns="http://www.w3.org/2000/svg">
<path d="M14.4313 4.79581C15.0027 4.41486 15.2884 4.22438 15.5997 4.2552C15.911 4.28603 16.1538 4.52884 16.6395 5.01446L18.9855 7.36054C19.4712 7.84616 19.714 8.08897 19.7448 8.40027C19.7756 8.71157 19.5851 8.99728 19.2042 9.56871L17.7616 11.7326C17.27 12.47 17.0242 12.8387 16.828 13.2322C16.6825 13.524 16.5576 13.8255 16.4542 14.1347C16.3147 14.5517 16.2278 14.9862 16.0539 15.8553L15.8868 16.6908C15.8862 16.6938 15.8859 16.6953 15.8857 16.6963C15.7611 17.3113 15.0487 17.5991 14.5319 17.2432C14.531 17.2426 14.5298 17.2418 14.5273 17.2401C14.5157 17.232 14.5098 17.228 14.5041 17.224C11.4855 15.1322 8.86785 12.5145 6.77604 9.49594C6.77204 9.49016 6.76801 9.48434 6.75994 9.4727C6.75823 9.47023 6.75738 9.46899 6.75675 9.46808C6.40088 8.95126 6.68866 8.23889 7.30366 8.11427C7.30474 8.11405 7.30621 8.11376 7.30916 8.11317L8.14475 7.94605C9.01379 7.77224 9.4483 7.68534 9.86531 7.54582C10.1745 7.44238 10.476 7.31747 10.7678 7.17199C11.1613 6.97578 11.53 6.72998 12.2674 6.23838L14.4313 4.79581Z" fill="#478CF6"/>
<path d="M14.4313 4.79581C15.0027 4.41486 15.2884 4.22438 15.5997 4.2552C15.911 4.28603 16.1538 4.52884 16.6395 5.01446L18.9855 7.36054C19.4712 7.84616 19.714 8.08897 19.7448 8.40027C19.7756 8.71157 19.5851 8.99728 19.2042 9.56871L17.7616 11.7326C17.27 12.47 17.0242 12.8387 16.828 13.2322C16.6825 13.524 16.5576 13.8255 16.4542 14.1347C16.3147 14.5517 16.2278 14.9862 16.0539 15.8553L15.8868 16.6908C15.8862 16.6938 15.8859 16.6953 15.8857 16.6963C15.7611 17.3113 15.0487 17.5991 14.5319 17.2432C14.531 17.2426 14.5298 17.2418 14.5273 17.2401C14.5157 17.232 14.5098 17.228 14.5041 17.224C11.4855 15.1322 8.86785 12.5145 6.77604 9.49594C6.77204 9.49016 6.76801 9.48434 6.75994 9.4727C6.75823 9.47023 6.75738 9.46899 6.75675 9.46808C6.40088 8.95126 6.68866 8.23889 7.30366 8.11427C7.30474 8.11405 7.30621 8.11376 7.30916 8.11317L8.14475 7.94605C9.01379 7.77224 9.4483 7.68534 9.86531 7.54582C10.1745 7.44238 10.476 7.31747 10.7678 7.17199C11.1613 6.97578 11.53 6.72998 12.2674 6.23838L14.4313 4.79581Z" fill="url(#paint0_linear_135_849)" fill-opacity="0.75" style="mix-blend-mode:overlay"/>
<path d="M14.4313 4.79581C15.0027 4.41486 15.2884 4.22438 15.5997 4.2552C15.911 4.28603 16.1538 4.52884 16.6395 5.01446L18.9855 7.36054C19.4712 7.84616 19.714 8.08897 19.7448 8.40027C19.7756 8.71157 19.5851 8.99728 19.2042 9.56871L17.7616 11.7326C17.27 12.47 17.0242 12.8387 16.828 13.2322C16.6825 13.524 16.5576 13.8255 16.4542 14.1347C16.3147 14.5517 16.2278 14.9862 16.0539 15.8553L15.8868 16.6908C15.8862 16.6938 15.8859 16.6953 15.8857 16.6963C15.7611 17.3113 15.0487 17.5991 14.5319 17.2432C14.531 17.2426 14.5298 17.2418 14.5273 17.2401C14.5157 17.232 14.5098 17.228 14.5041 17.224C11.4855 15.1322 8.86785 12.5145 6.77604 9.49594C6.77204 9.49016 6.76801 9.48434 6.75994 9.4727C6.75823 9.47023 6.75738 9.46899 6.75675 9.46808C6.40088 8.95126 6.68866 8.23889 7.30366 8.11427C7.30474 8.11405 7.30621 8.11376 7.30916 8.11317L8.14475 7.94605C9.01379 7.77224 9.4483 7.68534 9.86531 7.54582C10.1745 7.44238 10.476 7.31747 10.7678 7.17199C11.1613 6.97578 11.53 6.72998 12.2674 6.23838L14.4313 4.79581Z" stroke="#478CF6" stroke-width="1.75"/>
<path d="M14.4313 4.79581C15.0027 4.41486 15.2884 4.22438 15.5997 4.2552C15.911 4.28603 16.1538 4.52884 16.6395 5.01446L18.9855 7.36054C19.4712 7.84616 19.714 8.08897 19.7448 8.40027C19.7756 8.71157 19.5851 8.99728 19.2042 9.56871L17.7616 11.7326C17.27 12.47 17.0242 12.8387 16.828 13.2322C16.6825 13.524 16.5576 13.8255 16.4542 14.1347C16.3147 14.5517 16.2278 14.9862 16.0539 15.8553L15.8868 16.6908C15.8862 16.6938 15.8859 16.6953 15.8857 16.6963C15.7611 17.3113 15.0487 17.5991 14.5319 17.2432C14.531 17.2426 14.5298 17.2418 14.5273 17.2401C14.5157 17.232 14.5098 17.228 14.5041 17.224C11.4855 15.1322 8.86785 12.5145 6.77604 9.49594C6.77204 9.49016 6.76801 9.48434 6.75994 9.4727C6.75823 9.47023 6.75738 9.46899 6.75675 9.46808C6.40088 8.95126 6.68866 8.23889 7.30366 8.11427C7.30474 8.11405 7.30621 8.11376 7.30916 8.11317L8.14475 7.94605C9.01379 7.77224 9.4483 7.68534 9.86531 7.54582C10.1745 7.44238 10.476 7.31747 10.7678 7.17199C11.1613 6.97578 11.53 6.72998 12.2674 6.23838L14.4313 4.79581Z" stroke="url(#paint1_linear_135_849)" stroke-opacity="0.75" stroke-width="1.75" style="mix-blend-mode:overlay"/>
<path d="M6 18L9.9375 14.0625" stroke="#478CF6" stroke-width="1.75" stroke-linecap="round"/>
<path d="M6 18L9.9375 14.0625" stroke="url(#paint2_linear_135_849)" stroke-opacity="0.75" stroke-width="1.75" stroke-linecap="round" style="mix-blend-mode:overlay"/>
<defs>
<linearGradient id="paint0_linear_135_849" x1="13" y1="4" x2="13" y2="18" gradientUnits="userSpaceOnUse">
<stop stop-color="#666666"/>
<stop offset="0.677083" stop-color="#666666" stop-opacity="0"/>
</linearGradient>
<linearGradient id="paint1_linear_135_849" x1="13" y1="4" x2="13" y2="18" gradientUnits="userSpaceOnUse">
<stop stop-color="#666666"/>
<stop offset="0.677083" stop-color="#666666" stop-opacity="0"/>
</linearGradient>
<linearGradient id="paint2_linear_135_849" x1="10.2911" y1="14.4161" x2="6.35355" y2="18.3536" gradientUnits="userSpaceOnUse">
<stop stop-color="#666666"/>
<stop offset="0.677083" stop-color="#666666" stop-opacity="0"/>
</linearGradient>
</defs>
</svg>
