<svg width="24" height="24" viewBox="0 0 24 24" fill="none" xmlns="http://www.w3.org/2000/svg">
<path d="M7.06284 16.8313C6.92061 16.8313 6.81206 16.8313 6.70351 16.8313C5.76216 16.8163 5.02854 16.1239 5.01544 15.1863C4.99485 13.6236 4.99485 12.0609 5.01544 10.5001C5.02854 9.60363 5.76029 8.91492 6.6717 8.87562C6.7896 8.87001 6.90938 8.87562 7.06097 8.87562C7.06097 8.48448 7.04225 8.13077 7.06845 7.78081C7.07968 7.62547 7.14331 7.43832 7.24999 7.32978C7.94805 6.60926 8.65734 5.8981 9.37973 5.20003C9.49015 5.09336 9.6773 5.01101 9.82889 5.00914C11.8501 4.99604 13.8675 4.99979 15.8869 5.00353C16.2462 5.00353 16.3285 5.09523 16.3304 5.46204C16.3304 6.47638 16.3304 7.49073 16.3304 8.50507C16.3304 8.61361 16.3304 8.72403 16.3304 8.82696C16.6392 8.87562 16.9255 8.88685 17.1913 8.96732C17.9118 9.18629 18.3759 9.80388 18.3797 10.5562C18.389 12.0871 18.3928 13.6198 18.3797 15.1526C18.3722 16.1051 17.6442 16.8126 16.6916 16.8313C16.5831 16.8332 16.4745 16.8313 16.3304 16.8313C16.3304 17.4919 16.3304 18.1189 16.3304 18.7439C16.3304 18.8862 16.3323 19.0284 16.3304 19.1706C16.3248 19.3915 16.2088 19.5056 15.9898 19.5131C15.9187 19.515 15.8476 19.515 15.7765 19.515C13.0572 19.515 10.3398 19.515 7.62054 19.515C7.10963 19.515 7.06471 19.4682 7.06284 18.9592C7.06284 18.2611 7.06284 17.5649 7.06284 16.8313ZM15.6679 14.1663H7.72721V18.8618C7.84512 18.8675 7.94431 18.8768 8.04162 18.8768C10.4745 18.8768 12.9075 18.8731 15.3404 18.8843C15.6323 18.8843 15.6904 18.7889 15.6885 18.5212C15.6773 17.1831 15.6829 15.845 15.6829 14.5069C15.6829 14.3984 15.6735 14.2898 15.6679 14.1682V14.1663ZM15.6642 5.66229H10.0366C10.0366 5.79329 10.0366 5.90371 10.0366 6.01413C10.0366 6.5213 10.0404 7.02847 10.0366 7.53564C10.0329 7.85941 9.94118 7.94737 9.61554 7.95298C9.39283 7.95672 9.17013 7.95298 8.94555 7.95298C8.54318 7.95298 8.14268 7.95298 7.72534 7.95298V8.84568H15.666V5.66229H15.6642ZM16.5512 11.374C16.5438 11.0727 16.3023 10.8407 15.9992 10.8425C15.696 10.8444 15.4583 11.084 15.4564 11.3834C15.4564 11.6922 15.7184 11.9486 16.0235 11.9355C16.3192 11.9224 16.5587 11.6697 16.5512 11.374ZM14.1464 11.9336C14.444 11.9336 14.6835 11.6941 14.6872 11.3909C14.691 11.0821 14.4664 10.8482 14.1595 10.8407C13.8488 10.8332 13.5868 11.0896 13.5924 11.3928C13.598 11.6828 13.8526 11.9317 14.1464 11.9317V11.9336Z" fill="#478CF6"/>
<path d="M7.06284 16.8313C6.92061 16.8313 6.81206 16.8313 6.70351 16.8313C5.76216 16.8163 5.02854 16.1239 5.01544 15.1863C4.99485 13.6236 4.99485 12.0609 5.01544 10.5001C5.02854 9.60363 5.76029 8.91492 6.6717 8.87562C6.7896 8.87001 6.90938 8.87562 7.06097 8.87562C7.06097 8.48448 7.04225 8.13077 7.06845 7.78081C7.07968 7.62547 7.14331 7.43832 7.24999 7.32978C7.94805 6.60926 8.65734 5.8981 9.37973 5.20003C9.49015 5.09336 9.6773 5.01101 9.82889 5.00914C11.8501 4.99604 13.8675 4.99979 15.8869 5.00353C16.2462 5.00353 16.3285 5.09523 16.3304 5.46204C16.3304 6.47638 16.3304 7.49073 16.3304 8.50507C16.3304 8.61361 16.3304 8.72403 16.3304 8.82696C16.6392 8.87562 16.9255 8.88685 17.1913 8.96732C17.9118 9.18629 18.3759 9.80388 18.3797 10.5562C18.389 12.0871 18.3928 13.6198 18.3797 15.1526C18.3722 16.1051 17.6442 16.8126 16.6916 16.8313C16.5831 16.8332 16.4745 16.8313 16.3304 16.8313C16.3304 17.4919 16.3304 18.1189 16.3304 18.7439C16.3304 18.8862 16.3323 19.0284 16.3304 19.1706C16.3248 19.3915 16.2088 19.5056 15.9898 19.5131C15.9187 19.515 15.8476 19.515 15.7765 19.515C13.0572 19.515 10.3398 19.515 7.62054 19.515C7.10963 19.515 7.06471 19.4682 7.06284 18.9592C7.06284 18.2611 7.06284 17.5649 7.06284 16.8313ZM15.6679 14.1663H7.72721V18.8618C7.84512 18.8675 7.94431 18.8768 8.04162 18.8768C10.4745 18.8768 12.9075 18.8731 15.3404 18.8843C15.6323 18.8843 15.6904 18.7889 15.6885 18.5212C15.6773 17.1831 15.6829 15.845 15.6829 14.5069C15.6829 14.3984 15.6735 14.2898 15.6679 14.1682V14.1663ZM15.6642 5.66229H10.0366C10.0366 5.79329 10.0366 5.90371 10.0366 6.01413C10.0366 6.5213 10.0404 7.02847 10.0366 7.53564C10.0329 7.85941 9.94118 7.94737 9.61554 7.95298C9.39283 7.95672 9.17013 7.95298 8.94555 7.95298C8.54318 7.95298 8.14268 7.95298 7.72534 7.95298V8.84568H15.666V5.66229H15.6642ZM16.5512 11.374C16.5438 11.0727 16.3023 10.8407 15.9992 10.8425C15.696 10.8444 15.4583 11.084 15.4564 11.3834C15.4564 11.6922 15.7184 11.9486 16.0235 11.9355C16.3192 11.9224 16.5587 11.6697 16.5512 11.374ZM14.1464 11.9336C14.444 11.9336 14.6835 11.6941 14.6872 11.3909C14.691 11.0821 14.4664 10.8482 14.1595 10.8407C13.8488 10.8332 13.5868 11.0896 13.5924 11.3928C13.598 11.6828 13.8526 11.9317 14.1464 11.9317V11.9336Z" fill="url(#paint0_linear_103_998)" fill-opacity="0.75" style="mix-blend-mode:overlay"/>
<path d="M15.668 14.1662C15.6736 14.2878 15.683 14.3964 15.683 14.5049C15.683 15.843 15.6773 17.1811 15.6886 18.5192C15.6904 18.7869 15.6324 18.8842 15.3405 18.8823C12.9076 18.8711 10.4746 18.8748 8.0417 18.8748C7.94252 18.8748 7.8452 18.8655 7.72729 18.8598V14.1643H15.668V14.1662ZM11.6948 17.4881C10.7329 17.4881 9.76908 17.4899 8.80714 17.4881C8.5732 17.4881 8.35424 17.5292 8.35611 17.8099C8.35611 18.0888 8.57508 18.1375 8.80901 18.1375C10.7348 18.1375 12.6586 18.1356 14.5825 18.1375C14.8183 18.1375 15.0354 18.0869 15.0354 17.8099C15.0354 17.5292 14.8183 17.4881 14.5825 17.4899C13.6206 17.4937 12.6586 17.4899 11.6948 17.4899V17.4881ZM11.6948 16.8312C12.6568 16.8312 13.6206 16.8293 14.5825 16.8312C14.8183 16.8312 15.0354 16.7956 15.0373 16.513C15.0373 16.236 14.8239 16.1836 14.5881 16.1836C12.6624 16.1836 10.7366 16.1855 8.81275 16.1836C8.57695 16.1836 8.36173 16.2323 8.35798 16.5093C8.35424 16.79 8.57133 16.833 8.80714 16.8312C9.76908 16.8274 10.7329 16.8312 11.6948 16.8312ZM10.2201 14.8886C9.73352 14.8886 9.24694 14.8886 8.76035 14.8886C8.52642 14.8886 8.34675 14.9803 8.35424 15.2329C8.36173 15.4725 8.54139 15.5436 8.76035 15.5417C9.70358 15.5398 10.6449 15.5398 11.5882 15.5417C11.8165 15.5417 12.0074 15.4837 12.0055 15.2161C12.0036 14.9541 11.8165 14.8848 11.5882 14.8867C11.1315 14.8867 10.6767 14.8867 10.2201 14.8867V14.8886Z" fill="#E8EBF2"/>
<path d="M15.6642 5.66223V8.84749H7.72534V7.95479C8.14268 7.95479 8.54318 7.95479 8.94555 7.95479C9.16825 7.95479 9.39283 7.95854 9.61554 7.95479C9.94117 7.94731 10.0329 7.85935 10.0366 7.53745C10.0422 7.03028 10.0366 6.52311 10.0366 6.01594C10.0366 5.90552 10.0366 5.79511 10.0366 5.6641H15.6642V5.66223Z" fill="#E8EBF2"/>
<path d="M16.5514 11.3739C16.5588 11.6696 16.3193 11.9223 16.0236 11.9354C15.7186 11.9485 15.4565 11.6921 15.4565 11.3833C15.4565 11.0838 15.6961 10.8443 15.9993 10.8424C16.3025 10.8405 16.5439 11.0726 16.5514 11.3739Z" fill="#FFCC00"/>
<path d="M14.1466 11.9335C13.8546 11.9335 13.6001 11.6846 13.5926 11.3945C13.587 11.0895 13.849 10.835 14.1597 10.8424C14.4647 10.8499 14.6912 11.0839 14.6874 11.3927C14.6837 11.6958 14.4441 11.9354 14.1466 11.9354V11.9335Z" fill="#FFCC00"/>
<path d="M11.6949 17.49C12.6569 17.49 13.6207 17.4919 14.5826 17.49C14.8184 17.49 15.0355 17.5293 15.0355 17.8101C15.0355 18.087 14.8184 18.1376 14.5826 18.1376C12.6587 18.1376 10.733 18.1376 8.8091 18.1376C8.57516 18.1376 8.3562 18.0889 8.3562 17.8101C8.3562 17.5293 8.57329 17.4882 8.80723 17.4882C9.76917 17.4919 10.7311 17.4882 11.6949 17.4882V17.49Z" fill="#478CF6"/>
<path d="M11.6949 17.49C12.6569 17.49 13.6207 17.4919 14.5826 17.49C14.8184 17.49 15.0355 17.5293 15.0355 17.8101C15.0355 18.087 14.8184 18.1376 14.5826 18.1376C12.6587 18.1376 10.733 18.1376 8.8091 18.1376C8.57516 18.1376 8.3562 18.0889 8.3562 17.8101C8.3562 17.5293 8.57329 17.4882 8.80723 17.4882C9.76917 17.4919 10.7311 17.4882 11.6949 17.4882V17.49Z" fill="url(#paint1_linear_103_998)" fill-opacity="0.75" style="mix-blend-mode:overlay"/>
<path d="M11.6946 16.8311C10.7326 16.8311 9.76881 16.8293 8.80687 16.8311C8.57106 16.8311 8.35397 16.7881 8.35771 16.5092C8.36146 16.2341 8.57668 16.1836 8.81248 16.1836C10.7382 16.1836 12.664 16.1836 14.5879 16.1836C14.8237 16.1836 15.0389 16.236 15.037 16.513C15.037 16.7937 14.8181 16.8311 14.5823 16.8311C13.6203 16.8274 12.6565 16.8311 11.6946 16.8311Z" fill="#478CF6"/>
<path d="M11.6946 16.8311C10.7326 16.8311 9.76881 16.8293 8.80687 16.8311C8.57106 16.8311 8.35397 16.7881 8.35771 16.5092C8.36146 16.2341 8.57668 16.1836 8.81248 16.1836C10.7382 16.1836 12.664 16.1836 14.5879 16.1836C14.8237 16.1836 15.0389 16.236 15.037 16.513C15.037 16.7937 14.8181 16.8311 14.5823 16.8311C13.6203 16.8274 12.6565 16.8311 11.6946 16.8311Z" fill="url(#paint2_linear_103_998)" fill-opacity="0.75" style="mix-blend-mode:overlay"/>
<path d="M10.2201 14.8885C10.6767 14.8885 11.1315 14.8885 11.5881 14.8885C11.8183 14.8885 12.0036 14.9578 12.0055 15.2179C12.0074 15.4856 11.8165 15.5436 11.5881 15.5436C10.6449 15.5436 9.70357 15.5436 8.76034 15.5436C8.54138 15.5436 8.36172 15.4725 8.35423 15.2348C8.34674 14.9803 8.52641 14.8904 8.76034 14.8904C9.24693 14.8904 9.73351 14.8904 10.2201 14.8904V14.8885Z" fill="#478CF6"/>
<path d="M10.2201 14.8885C10.6767 14.8885 11.1315 14.8885 11.5881 14.8885C11.8183 14.8885 12.0036 14.9578 12.0055 15.2179C12.0074 15.4856 11.8165 15.5436 11.5881 15.5436C10.6449 15.5436 9.70357 15.5436 8.76034 15.5436C8.54138 15.5436 8.36172 15.4725 8.35423 15.2348C8.34674 14.9803 8.52641 14.8904 8.76034 14.8904C9.24693 14.8904 9.73351 14.8904 10.2201 14.8904V14.8885Z" fill="url(#paint3_linear_103_998)" fill-opacity="0.75" style="mix-blend-mode:overlay"/>
<defs>
<linearGradient id="paint0_linear_103_998" x1="11.6941" y1="5" x2="11.6941" y2="19.515" gradientUnits="userSpaceOnUse">
<stop stop-color="#666666"/>
<stop offset="0.677083" stop-color="#666666" stop-opacity="0"/>
</linearGradient>
<linearGradient id="paint1_linear_103_998" x1="11.6959" y1="17.4882" x2="11.6959" y2="18.1376" gradientUnits="userSpaceOnUse">
<stop stop-color="#666666"/>
<stop offset="0.677083" stop-color="#666666" stop-opacity="0"/>
</linearGradient>
<linearGradient id="paint2_linear_103_998" x1="11.6974" y1="16.1836" x2="11.6974" y2="16.8311" gradientUnits="userSpaceOnUse">
<stop stop-color="#666666"/>
<stop offset="0.677083" stop-color="#666666" stop-opacity="0"/>
</linearGradient>
<linearGradient id="paint3_linear_103_998" x1="10.1798" y1="14.8885" x2="10.1798" y2="15.5436" gradientUnits="userSpaceOnUse">
<stop stop-color="#666666"/>
<stop offset="0.677083" stop-color="#666666" stop-opacity="0"/>
</linearGradient>
</defs>
</svg>
