<svg width="24" height="24" viewBox="0 0 24 24" fill="none" xmlns="http://www.w3.org/2000/svg">
<path d="M12.0597 6.88658C13.2313 6.92936 14.3516 7.69523 14.9158 8.72604C16.2417 11.1478 14.3557 14.3341 12.8322 16.2039C12.6861 16.3833 12.0083 17.1989 11.8581 17.2458C11.6497 17.3106 11.463 17.0567 11.3263 16.9105C9.7826 15.2642 7.80318 12.0917 8.24561 9.74168C8.53379 8.21685 9.96254 6.9335 11.4901 6.88658V3.29599C11.5753 2.88752 11.7931 2.9786 12.0745 3.11659C12.6644 3.40362 13.575 3.84658 14.1067 4.19847C14.4571 4.42892 14.3854 4.59865 14.0661 4.80426C13.8023 4.97399 12.1368 5.75228 12.0786 5.85025L12.0583 6.88796L12.0597 6.88658ZM11.44 8.89025C9.43353 9.18556 9.58912 12.4422 11.7174 12.4919C14.2068 12.5498 14.0973 8.49973 11.44 8.89025Z" fill="#0F214D"/>
<path d="M21.9392 12.0862C22.0623 12.2394 21.9852 12.456 21.8269 12.5485L19.5566 13.7408C19.4944 13.8415 19.5972 14.9054 19.5417 15.158C19.4565 15.5485 18.9532 15.427 18.9789 15.0448C19.0682 13.7601 18.8666 12.3222 18.9789 11.0568C19.0046 10.7629 19.1196 10.6331 19.4172 10.738L21.9406 12.0876L21.9392 12.0862Z" fill="#0F214D"/>
<path d="M4.53713 13.742C4.46137 13.8648 4.59937 14.9591 4.51278 15.2323C4.43295 15.4835 4.02165 15.4366 4.00406 15.1647L4 10.9311C4.03924 10.6965 4.19483 10.6716 4.39778 10.7379C4.88756 10.8966 5.97806 11.5369 6.4719 11.8184C6.74926 11.9771 7.27016 12.1716 6.86561 12.5249L4.53849 13.742H4.53713Z" fill="#0F214D"/>
<path d="M15.7128 12.9543C15.7912 12.9363 15.8521 12.9405 15.9292 12.9653C15.9725 12.9791 16.6626 13.3917 16.6991 13.4262C16.9156 13.6304 16.7343 13.9961 16.373 13.883C16.3311 13.8692 15.6532 13.4759 15.6208 13.4469C15.4625 13.2951 15.4882 13.0067 15.7128 12.9556V12.9543Z" fill="#0F214D"/>
<path d="M17.2983 13.9091C17.4932 13.8484 18.1981 14.2306 18.3307 14.3769C18.5431 14.6128 18.3442 14.9192 18.0425 14.8378C17.9369 14.8088 17.2063 14.3575 17.1685 14.2748C17.117 14.1602 17.1712 13.9491 17.2983 13.9104V13.9091Z" fill="#0F214D"/>
<path d="M6.96169 16.6482C7.02934 16.6344 7.07263 16.6385 7.13622 16.6592C7.19169 16.6772 7.86683 17.076 7.91013 17.116C8.17531 17.3713 7.9683 17.6804 7.61247 17.5852C7.54347 17.5672 6.86833 17.156 6.82639 17.1008C6.70327 16.9421 6.74927 16.6923 6.96169 16.6482Z" fill="#0F214D"/>
<path d="M18.033 15.7375C18.351 15.6685 18.5445 15.9472 18.3483 16.1832C18.3172 16.2205 17.5784 16.6469 17.5162 16.6634C17.2321 16.7393 17.0291 16.4357 17.2294 16.2039C17.2673 16.1598 17.9722 15.7499 18.033 15.7375Z" fill="#0F214D"/>
<path d="M8.54727 17.6045C8.61898 17.5838 8.70151 17.5865 8.77322 17.6045C8.82328 17.6183 9.54036 18.0378 9.57418 18.075C9.77713 18.2931 9.55795 18.6146 9.28194 18.5401C9.22241 18.5235 8.4918 18.0944 8.45662 18.053C8.34297 17.9219 8.37679 17.6555 8.54862 17.6045H8.54727Z" fill="#0F214D"/>
<path d="M14.7766 17.6032C15.0742 17.5342 15.2799 17.8267 15.0918 18.0503C15.0566 18.0917 14.3247 18.5139 14.2597 18.5305C13.9445 18.6133 13.7727 18.3014 13.9729 18.071C14.0067 18.0323 14.7265 17.6142 14.7766 17.6032Z" fill="#0F214D"/>
<path d="M10.0762 18.6021C10.11 18.5649 10.2643 18.5069 10.3211 18.5152C10.4077 18.5276 11.1451 18.9526 11.2059 19.0272C11.3859 19.2411 11.2059 19.5419 10.9597 19.4894C10.8271 19.4618 10.0681 19.0161 10.0329 18.8947C10.0113 18.8174 10.0221 18.6615 10.0762 18.6035V18.6021Z" fill="#0F214D"/>
<path d="M7.93592 13.4316C7.89669 13.4757 7.17284 13.8773 7.10519 13.8925C6.78995 13.9573 6.64924 13.6358 6.84813 13.4219C6.87925 13.3874 7.6085 12.9652 7.65315 12.9555C7.94675 12.8865 8.13752 13.2053 7.93728 13.433L7.93592 13.4316Z" fill="#0F214D"/>
<path d="M5.19062 15.7787C5.2975 15.7139 5.43145 15.7097 5.54916 15.747C5.59516 15.7608 6.26083 16.1555 6.29465 16.19C6.51113 16.4039 6.32442 16.7226 6.066 16.6757C5.96182 16.6578 5.17303 16.1996 5.14732 16.1141C5.12432 16.0368 5.13515 15.8353 5.19062 15.7787Z" fill="#0F214D"/>
<path d="M16.4462 16.6481C16.6829 16.5998 16.871 16.8634 16.7438 17.0787C16.7086 17.138 16.0146 17.552 15.928 17.5754C15.6479 17.65 15.4057 17.4664 15.5586 17.1987C15.606 17.1145 16.3447 16.6688 16.4462 16.6481Z" fill="#0F214D"/>
<path d="M13.2299 18.5152C13.4735 18.4917 13.6182 18.7981 13.4234 19.0051C13.3585 19.074 12.6414 19.4825 12.5588 19.4963C12.3261 19.5322 12.134 19.2079 12.3843 18.983C12.4682 18.9071 13.1433 18.5221 13.2299 18.5138V18.5152Z" fill="#0F214D"/>
<path d="M5.19326 14.37C5.22302 14.3328 5.97122 13.9119 6.01858 13.9022C6.3487 13.8429 6.53 14.1437 6.27835 14.3756C6.19852 14.4501 5.52609 14.8323 5.43679 14.8489C5.16079 14.8972 5.04308 14.5577 5.19461 14.37H5.19326Z" fill="#0F214D"/>
</svg>
