<svg width="24" height="24" viewBox="0 0 24 24" fill="none" xmlns="http://www.w3.org/2000/svg">
<path d="M11.8739 3.00098C17.5794 2.91596 20.4747 8.35986 18.2487 13.3852C17.2502 15.6351 14.5751 19.6815 12.4276 20.9002C11.924 21.1859 11.8739 21.0921 11.4051 20.7891C9.09631 19.3022 5.7977 14.3881 5.20251 11.7173C4.18001 7.14332 7.12543 3.07293 11.8739 3.00098ZM11.7038 4.94352C7.7337 5.18988 5.57968 9.70285 7.88195 12.9622C10.2256 16.2804 15.4014 15.5675 16.7793 11.7479C18.0132 8.3228 15.336 4.71678 11.706 4.94352H11.7038Z" fill="#0F214D"/>
<path d="M11.8718 6.16446C12.9008 5.99876 12.8027 7.66878 13.2322 8.24435C13.7424 8.27705 14.9633 8.06121 15.3448 8.41004C16.1537 9.41292 14.4597 9.91 13.9146 10.4834C13.8863 10.6055 14.4553 11.9158 14.4597 12.2929C14.4662 12.7006 14.1305 13.0211 13.7184 12.9906C13.2846 12.9579 12.467 12.0793 12.0266 11.8918L11.9263 11.9136C11.5012 12.149 10.9016 12.7966 10.4699 12.9492C10.1429 13.0647 9.70252 12.8925 9.59351 12.5567C9.42127 12.0313 10.0056 11.0306 10.1037 10.4834C10.084 10.4005 8.91547 9.6462 8.73888 9.48487C8.41403 9.19054 8.32246 8.72617 8.67129 8.40786C8.96562 8.13752 10.0056 8.20946 10.4263 8.21818C10.5571 8.22036 10.6945 8.31193 10.8079 8.22472C10.9452 8.1179 11.2395 6.80761 11.3922 6.53073C11.4881 6.35413 11.6669 6.19498 11.8696 6.16446H11.8718Z" fill="#0F214D"/>
</svg>
