<svg width="28" height="29" viewBox="0 0 28 29" fill="none" xmlns="http://www.w3.org/2000/svg">
<path d="M14 21.6826C12.9697 21.6826 12.0029 21.4873 11.0996 21.0967C10.1963 20.7109 9.40283 20.1763 8.71924 19.4927C8.03564 18.8091 7.49854 18.0156 7.10791 17.1123C6.72217 16.209 6.5293 15.2422 6.5293 14.2119C6.5293 13.2988 6.68311 12.4346 6.99072 11.6191C7.29834 10.8037 7.72559 10.0688 8.27246 9.41455C8.82422 8.76025 9.46631 8.21582 10.1987 7.78125C10.936 7.3418 11.7319 7.0415 12.5864 6.88037V5.84033C12.5864 5.66455 12.6206 5.53271 12.689 5.44482C12.7622 5.35693 12.8574 5.31543 12.9746 5.32031C13.0918 5.3252 13.2188 5.37402 13.3555 5.4668L15.6846 7.10742C15.8555 7.22949 15.9385 7.36865 15.9336 7.5249C15.9336 7.68115 15.8506 7.81787 15.6846 7.93506L13.3481 9.57568C13.2114 9.66846 13.0845 9.71729 12.9673 9.72217C12.855 9.72217 12.7622 9.67822 12.689 9.59033C12.6206 9.50244 12.5864 9.37305 12.5864 9.20215V8.14746C11.8979 8.30859 11.2607 8.57471 10.6748 8.9458C10.0938 9.31689 9.58594 9.771 9.15137 10.3081C8.7168 10.8403 8.37744 11.4385 8.1333 12.1025C7.89404 12.7666 7.77441 13.4697 7.77441 14.2119C7.77441 15.0713 7.93555 15.877 8.25781 16.6289C8.58008 17.3809 9.02686 18.0425 9.59814 18.6138C10.1694 19.1851 10.8311 19.6318 11.583 19.9541C12.335 20.2764 13.1406 20.4375 14 20.4375C14.8594 20.4375 15.665 20.2764 16.417 19.9541C17.1689 19.6318 17.8306 19.1851 18.4019 18.6138C18.9731 18.0425 19.4199 17.3809 19.7422 16.6289C20.0645 15.877 20.2256 15.0713 20.2256 14.2119C20.2256 13.5137 20.1182 12.8521 19.9033 12.2271C19.6885 11.6021 19.3882 11.0308 19.0024 10.5132C18.6167 9.99072 18.165 9.54395 17.6475 9.17285C17.4961 9.06055 17.3984 8.92627 17.3545 8.77002C17.3154 8.60889 17.3423 8.4502 17.4351 8.29395C17.5278 8.14746 17.6646 8.05713 17.8452 8.02295C18.0259 7.98877 18.1968 8.03516 18.3579 8.16211C18.9878 8.61621 19.5347 9.15576 19.9985 9.78076C20.4673 10.4009 20.8286 11.0869 21.0825 11.8389C21.3413 12.5859 21.4707 13.377 21.4707 14.2119C21.4707 15.2422 21.2754 16.209 20.8848 17.1123C20.499 18.0156 19.9644 18.8091 19.2808 19.4927C18.5972 20.1763 17.8037 20.7109 16.9004 21.0967C15.9971 21.4873 15.0303 21.6826 14 21.6826Z" fill="#3C3C43" fill-opacity="0.3"/>
</svg>
