<svg width="24" height="24" viewBox="0 0 24 24" fill="none" xmlns="http://www.w3.org/2000/svg">
<path d="M18.279 14.6123C17.8532 16.2013 16.9005 17.5985 15.5768 18.5751C14.2531 19.5517 12.637 20.0499 10.9932 19.9879C9.3494 19.9259 7.77537 19.3075 6.52899 18.234C5.2826 17.1605 4.43775 15.6955 4.13285 14.079C3.82794 12.4626 4.08106 10.7905 4.85073 9.33665C5.6204 7.88285 6.86099 6.73355 8.36927 6.07701C9.87754 5.42048 11.5641 5.29565 13.1526 5.72297C14.7411 6.1503 16.1374 7.10443 17.1127 8.42908" stroke="#478CF6" stroke-width="2.07419" stroke-linecap="round" stroke-linejoin="round"/>
<path d="M18.279 14.6123C17.8532 16.2013 16.9005 17.5985 15.5768 18.5751C14.2531 19.5517 12.637 20.0499 10.9932 19.9879C9.3494 19.9259 7.77537 19.3075 6.52899 18.234C5.2826 17.1605 4.43775 15.6955 4.13285 14.079C3.82794 12.4626 4.08106 10.7905 4.85073 9.33665C5.6204 7.88285 6.86099 6.73355 8.36927 6.07701C9.87754 5.42048 11.5641 5.29565 13.1526 5.72297C14.7411 6.1503 16.1374 7.10443 17.1127 8.42908" stroke="url(#paint0_linear_135_842)" stroke-opacity="0.75" stroke-width="2.07419" stroke-linecap="round" stroke-linejoin="round" style="mix-blend-mode:overlay"/>
<path d="M19.2187 9.82407C19.2751 10.1732 18.9731 10.4752 18.624 10.4187L12.7586 9.47057C12.3411 9.40308 12.1756 8.89106 12.4747 8.592L17.3919 3.67473C17.691 3.37567 18.203 3.54114 18.2705 3.95865L19.2187 9.82407Z" fill="#478CF6"/>
<path d="M19.2187 9.82407C19.2751 10.1732 18.9731 10.4752 18.624 10.4187L12.7586 9.47057C12.3411 9.40308 12.1756 8.89106 12.4747 8.592L17.3919 3.67473C17.691 3.37567 18.203 3.54114 18.2705 3.95865L19.2187 9.82407Z" fill="url(#paint1_linear_135_842)" fill-opacity="0.75" style="mix-blend-mode:overlay"/>
<defs>
<linearGradient id="paint0_linear_135_842" x1="6.13335" y1="17.8667" x2="16.4" y2="7.60005" gradientUnits="userSpaceOnUse">
<stop stop-color="#666666"/>
<stop offset="0.677083" stop-color="#666666" stop-opacity="0"/>
</linearGradient>
<linearGradient id="paint1_linear_135_842" x1="19.3333" y1="10.5334" x2="13.4666" y2="4.66669" gradientUnits="userSpaceOnUse">
<stop stop-color="#666666"/>
<stop offset="0.677083" stop-color="#666666" stop-opacity="0"/>
</linearGradient>
</defs>
</svg>
