<svg width="24" height="24" viewBox="0 0 24 24" fill="none" xmlns="http://www.w3.org/2000/svg">
<path fill-rule="evenodd" clip-rule="evenodd" d="M3 9C3 6.17157 3 4.75736 3.87868 3.87868C4.75736 3 6.17157 3 9 3H15.3431C16.1606 3 16.5694 3 16.9369 3.15224C17.3045 3.30448 17.5935 3.59351 18.1716 4.17157L19.8284 5.82843C20.4065 6.40649 20.6955 6.69552 20.8478 7.06306C21 7.4306 21 7.83935 21 8.65685V15C21 17.8284 21 19.2426 20.1213 20.1213C19.4596 20.783 18.4943 20.9464 16.85 20.9868V18L16.85 17.9455V17.9455C16.85 17.2851 16.8501 16.7063 16.7875 16.2408C16.7199 15.7381 16.5656 15.2422 16.1617 14.8383C15.7578 14.4344 15.2619 14.2801 14.7592 14.2125C14.2936 14.1499 13.7149 14.15 13.0545 14.15L13 14.15H10L9.94553 14.15C9.28512 14.15 8.70635 14.1499 8.24083 14.2125C7.73811 14.2801 7.24222 14.4344 6.8383 14.8383C6.43438 15.2422 6.28009 15.7381 6.2125 16.2408C6.14991 16.7064 6.14995 17.2851 6.15 17.9455L6.15 18V20.9375C5.09155 20.8491 4.39328 20.6359 3.87868 20.1213C3 19.2426 3 17.8284 3 15V9ZM15.15 18V21H15H9C8.58749 21 8.20507 21 7.85 20.9973V18C7.85 17.2689 7.85181 16.806 7.89734 16.4674C7.93958 16.1531 8.00496 16.0758 8.04038 16.0404C8.0758 16.005 8.15314 15.9396 8.46735 15.8973C8.80602 15.8518 9.26886 15.85 10 15.85H13C13.7311 15.85 14.194 15.8518 14.5326 15.8973C14.8469 15.9396 14.9242 16.005 14.9596 16.0404C14.995 16.0758 15.0604 16.1531 15.1027 16.4674C15.1482 16.806 15.15 17.2689 15.15 18ZM7 7.15C6.53056 7.15 6.15 7.53056 6.15 8C6.15 8.46944 6.53056 8.85 7 8.85H12C12.4694 8.85 12.85 8.46944 12.85 8C12.85 7.53056 12.4694 7.15 12 7.15H7Z" fill="#0A84FF"/>
</svg>
