<svg width="16" height="15" viewBox="0 0 16 15" fill="none" xmlns="http://www.w3.org/2000/svg">
<path d="M0.844238 5.83496C0.844238 5.0293 0.995605 4.2749 1.29834 3.57178C1.60107 2.86377 2.021 2.24121 2.55811 1.7041C3.09521 1.16699 3.71533 0.74707 4.41846 0.444336C5.12646 0.141602 5.8833 -0.00976562 6.68896 -0.00976562C7.49463 -0.00976562 8.24902 0.141602 8.95215 0.444336C9.66016 0.74707 10.2827 1.16699 10.8198 1.7041C11.3569 2.24121 11.7769 2.86377 12.0796 3.57178C12.3823 4.2749 12.5337 5.0293 12.5337 5.83496C12.5337 6.50391 12.4263 7.13867 12.2114 7.73926C12.0015 8.33984 11.7085 8.88428 11.3325 9.37256L14.9141 12.9761C14.9922 13.0542 15.0508 13.1445 15.0898 13.2471C15.1338 13.3496 15.1558 13.4595 15.1558 13.5767C15.1558 13.7378 15.1191 13.8843 15.0459 14.0161C14.9775 14.1479 14.8799 14.2505 14.7529 14.3237C14.626 14.4019 14.4795 14.4409 14.3135 14.4409C14.1963 14.4409 14.084 14.4189 13.9766 14.375C13.874 14.3359 13.7788 14.2749 13.6909 14.1919L10.0874 10.5811C9.60889 10.9229 9.08154 11.1914 8.50537 11.3867C7.9292 11.582 7.32373 11.6797 6.68896 11.6797C5.8833 11.6797 5.12646 11.5283 4.41846 11.2256C3.71533 10.9229 3.09521 10.5029 2.55811 9.96582C2.021 9.42871 1.60107 8.80859 1.29834 8.10547C0.995605 7.39746 0.844238 6.64062 0.844238 5.83496ZM2.09668 5.83496C2.09668 6.46973 2.21387 7.06543 2.44824 7.62207C2.6875 8.17383 3.01709 8.65967 3.43701 9.07959C3.86182 9.49951 4.3501 9.8291 4.90186 10.0684C5.4585 10.3076 6.0542 10.4272 6.68896 10.4272C7.32373 10.4272 7.91699 10.3076 8.46875 10.0684C9.02539 9.8291 9.51367 9.49951 9.93359 9.07959C10.3535 8.65967 10.6831 8.17383 10.9224 7.62207C11.1616 7.06543 11.2812 6.46973 11.2812 5.83496C11.2812 5.2002 11.1616 4.60693 10.9224 4.05518C10.6831 3.49854 10.3535 3.01025 9.93359 2.59033C9.51367 2.16553 9.02539 1.83594 8.46875 1.60156C7.91699 1.3623 7.32373 1.24268 6.68896 1.24268C6.0542 1.24268 5.4585 1.3623 4.90186 1.60156C4.3501 1.83594 3.86182 2.16553 3.43701 2.59033C3.01709 3.01025 2.6875 3.49854 2.44824 4.05518C2.21387 4.60693 2.09668 5.2002 2.09668 5.83496Z" fill="#3C3C43" fill-opacity="0.3"/>
</svg>
