<svg width="14" height="13" viewBox="0 0 14 13" fill="none" xmlns="http://www.w3.org/2000/svg">
<path d="M0.728516 5.26172C0.728516 4.55078 0.861816 3.88428 1.12842 3.26221C1.39925 2.6359 1.77165 2.08577 2.24561 1.61182C2.71956 1.13363 3.26758 0.76123 3.88965 0.494629C4.51595 0.228027 5.18457 0.0947266 5.89551 0.0947266C6.61068 0.0947266 7.2793 0.228027 7.90137 0.494629C8.52767 0.76123 9.0778 1.13363 9.55176 1.61182C10.0257 2.08577 10.396 2.6359 10.6626 3.26221C10.9334 3.88428 11.0688 4.55078 11.0688 5.26172C11.0688 5.82031 10.9821 6.3514 10.8086 6.85498C10.6393 7.35856 10.4045 7.81771 10.104 8.23242L12.9985 11.1396C13.0874 11.2243 13.153 11.3237 13.1953 11.438C13.2419 11.5522 13.2651 11.6729 13.2651 11.7998C13.2651 11.9775 13.2249 12.1383 13.1445 12.2822C13.0641 12.4261 12.9541 12.5382 12.8145 12.6187C12.6748 12.7033 12.514 12.7456 12.332 12.7456C12.2051 12.7456 12.0824 12.7223 11.9639 12.6758C11.8496 12.6335 11.7459 12.5658 11.6528 12.4727L8.73926 9.55908C8.33301 9.82992 7.88867 10.0436 7.40625 10.2002C6.92806 10.3525 6.42448 10.4287 5.89551 10.4287C5.18457 10.4287 4.51595 10.2954 3.88965 10.0288C3.26758 9.76221 2.71956 9.39193 2.24561 8.91797C1.77165 8.44401 1.39925 7.896 1.12842 7.27393C0.861816 6.64762 0.728516 5.97689 0.728516 5.26172ZM2.05518 5.26172C2.05518 5.79492 2.15251 6.29427 2.34717 6.75977C2.54606 7.22103 2.82113 7.62728 3.17236 7.97852C3.52783 8.32975 3.93831 8.60693 4.40381 8.81006C4.8693 9.00895 5.36654 9.1084 5.89551 9.1084C6.42871 9.1084 6.92594 9.00895 7.38721 8.81006C7.8527 8.60693 8.26107 8.32975 8.6123 7.97852C8.96354 7.62728 9.23861 7.22103 9.4375 6.75977C9.64062 6.29427 9.74219 5.79492 9.74219 5.26172C9.74219 4.73275 9.64062 4.23551 9.4375 3.77002C9.23861 3.30452 8.96354 2.89616 8.6123 2.54492C8.26107 2.18945 7.8527 1.91439 7.38721 1.71973C6.92594 1.52083 6.42871 1.42139 5.89551 1.42139C5.36654 1.42139 4.8693 1.52083 4.40381 1.71973C3.93831 1.91439 3.52783 2.18945 3.17236 2.54492C2.82113 2.89616 2.54606 3.30452 2.34717 3.77002C2.15251 4.23551 2.05518 4.73275 2.05518 5.26172Z" fill="#4D4D4D"/>
</svg>
