<svg width="16" height="19" viewBox="0 0 16 19" fill="none" xmlns="http://www.w3.org/2000/svg">
<path d="M4.05957 4.04834V2.29053C4.05957 1.52881 4.24756 0.955078 4.62354 0.569336C5.00439 0.183594 5.57324 -0.00927734 6.33008 -0.00927734H9.13525C9.53076 -0.00927734 9.88477 0.046875 10.1973 0.15918C10.5098 0.266602 10.7954 0.45459 11.0542 0.723145L14.7529 4.48047C15.0264 4.76367 15.2168 5.06152 15.3242 5.37402C15.4316 5.68652 15.4854 6.06738 15.4854 6.5166V12.4639C15.4854 13.2256 15.2949 13.7993 14.9141 14.1851C14.5381 14.5708 13.9717 14.7637 13.2148 14.7637H11.7061V13.5845H13.1489C13.5298 13.5845 13.8179 13.4868 14.0132 13.2915C14.2085 13.0913 14.3062 12.8081 14.3062 12.4419V6.17969H10.8784C10.4585 6.17969 10.1436 6.07715 9.93359 5.87207C9.72852 5.66699 9.62598 5.35205 9.62598 4.92725V1.16992H6.38867C6.00781 1.16992 5.71973 1.27002 5.52441 1.47021C5.33398 1.66553 5.23877 1.94629 5.23877 2.3125V4.04834H4.05957ZM10.688 4.75146C10.688 4.8833 10.7148 4.97852 10.7686 5.03711C10.8271 5.09082 10.9199 5.11768 11.0469 5.11768H13.9985L10.688 1.74854V4.75146ZM0.507324 16.1187V5.94531C0.507324 5.18359 0.695312 4.60986 1.07129 4.22412C1.45215 3.83838 2.021 3.64551 2.77783 3.64551H5.36328C5.77344 3.64551 6.11279 3.68945 6.38135 3.77734C6.6499 3.86523 6.92334 4.05322 7.20166 4.34131L11.2373 8.4502C11.4326 8.65039 11.5791 8.84082 11.6768 9.02148C11.7793 9.19727 11.8477 9.39258 11.8818 9.60742C11.916 9.82227 11.9331 10.0859 11.9331 10.3984V16.1187C11.9331 16.8804 11.7427 17.4541 11.3618 17.8398C10.9858 18.2256 10.4194 18.4185 9.6626 18.4185H2.77783C2.021 18.4185 1.45215 18.2256 1.07129 17.8398C0.695312 17.459 0.507324 16.8853 0.507324 16.1187ZM1.68652 16.0967C1.68652 16.4629 1.78174 16.7437 1.97217 16.939C2.16748 17.1392 2.45312 17.2393 2.8291 17.2393H9.604C9.97998 17.2393 10.2656 17.1392 10.4609 16.939C10.6562 16.7437 10.7539 16.4629 10.7539 16.0967V10.457H6.61572C6.16162 10.457 5.81738 10.3423 5.58301 10.1128C5.35352 9.8833 5.23877 9.53662 5.23877 9.07275V4.82471H2.83643C2.45557 4.82471 2.16748 4.9248 1.97217 5.125C1.78174 5.32031 1.68652 5.59863 1.68652 5.95996V16.0967ZM6.75488 9.35107H10.5269L6.34473 5.0957V8.94092C6.34473 9.0874 6.37646 9.19238 6.43994 9.25586C6.50342 9.31934 6.6084 9.35107 6.75488 9.35107Z" fill="#3C3C43" fill-opacity="0.3"/>
</svg>
