<svg width="24" height="24" viewBox="0 0 24 24" fill="none" xmlns="http://www.w3.org/2000/svg">
<path fill-rule="evenodd" clip-rule="evenodd" d="M4 12C4 7.58172 7.58172 4 12 4C16.4183 4 20 7.58172 20 12C20 14.4113 18.9332 16.5734 17.2458 18.0401C16.8797 17.06 16.2448 16.1985 15.4091 15.5572C14.4311 14.8068 13.2328 14.4 12 14.4C10.7673 14.4 9.56894 14.8068 8.59094 15.5572C7.75524 16.1985 7.1203 17.06 6.75415 18.0401C5.06679 16.5734 4 14.4113 4 12ZM15.8637 18.9647C15.867 18.9769 15.8705 18.989 15.8743 19.0009C14.7265 19.6375 13.4056 20 12 20C10.5944 20 9.27354 19.6375 8.12568 19.0009C8.12948 18.989 8.13302 18.9769 8.1363 18.9647C8.3642 18.1142 8.86638 17.3626 9.56496 16.8266C10.2635 16.2905 11.1195 16 12 16C12.8805 16 13.7365 16.2906 14.435 16.8266C15.1336 17.3626 15.6358 18.1142 15.8637 18.9647ZM10.4 9.6C10.4 8.71634 11.1163 8 12 8C12.8837 8 13.6 8.71634 13.6 9.6C13.6 10.4837 12.8837 11.2 12 11.2C11.1163 11.2 10.4 10.4837 10.4 9.6ZM12 6.4C10.2327 6.4 8.8 7.83269 8.8 9.6C8.8 11.3673 10.2327 12.8 12 12.8C13.7673 12.8 15.2 11.3673 15.2 9.6C15.2 7.83269 13.7673 6.4 12 6.4Z" fill="#478CF6"/>
<path fill-rule="evenodd" clip-rule="evenodd" d="M4 12C4 7.58172 7.58172 4 12 4C16.4183 4 20 7.58172 20 12C20 14.4113 18.9332 16.5734 17.2458 18.0401C16.8797 17.06 16.2448 16.1985 15.4091 15.5572C14.4311 14.8068 13.2328 14.4 12 14.4C10.7673 14.4 9.56894 14.8068 8.59094 15.5572C7.75524 16.1985 7.1203 17.06 6.75415 18.0401C5.06679 16.5734 4 14.4113 4 12ZM15.8637 18.9647C15.867 18.9769 15.8705 18.989 15.8743 19.0009C14.7265 19.6375 13.4056 20 12 20C10.5944 20 9.27354 19.6375 8.12568 19.0009C8.12948 18.989 8.13302 18.9769 8.1363 18.9647C8.3642 18.1142 8.86638 17.3626 9.56496 16.8266C10.2635 16.2905 11.1195 16 12 16C12.8805 16 13.7365 16.2906 14.435 16.8266C15.1336 17.3626 15.6358 18.1142 15.8637 18.9647ZM10.4 9.6C10.4 8.71634 11.1163 8 12 8C12.8837 8 13.6 8.71634 13.6 9.6C13.6 10.4837 12.8837 11.2 12 11.2C11.1163 11.2 10.4 10.4837 10.4 9.6ZM12 6.4C10.2327 6.4 8.8 7.83269 8.8 9.6C8.8 11.3673 10.2327 12.8 12 12.8C13.7673 12.8 15.2 11.3673 15.2 9.6C15.2 7.83269 13.7673 6.4 12 6.4Z" fill="url(#paint0_linear_96_167)" fill-opacity="0.75" style="mix-blend-mode:overlay"/>
<rect x="4.4" y="4.4" width="15.2" height="15.2" rx="7.6" stroke="#478CF6" stroke-width="0.8"/>
<rect x="4.4" y="4.4" width="15.2" height="15.2" rx="7.6" stroke="url(#paint1_linear_96_167)" stroke-opacity="0.75" stroke-width="0.8" style="mix-blend-mode:overlay"/>
<defs>
<linearGradient id="paint0_linear_96_167" x1="12" y1="4" x2="12" y2="20" gradientUnits="userSpaceOnUse">
<stop stop-color="#666666"/>
<stop offset="0.677083" stop-color="#666666" stop-opacity="0"/>
</linearGradient>
<linearGradient id="paint1_linear_96_167" x1="12" y1="4" x2="12" y2="20" gradientUnits="userSpaceOnUse">
<stop stop-color="#666666"/>
<stop offset="0.677083" stop-color="#666666" stop-opacity="0"/>
</linearGradient>
</defs>
</svg>
