<svg width="24" height="24" viewBox="0 0 24 24" fill="none" xmlns="http://www.w3.org/2000/svg">
<path fill-rule="evenodd" clip-rule="evenodd" d="M15.9202 12.7988C15.9725 12.5407 16 12.2736 16 12C16 9.79086 14.2091 8 12 8C11.7264 8 11.4593 8.02746 11.2012 8.07977L12.1239 9.00251C13.6822 9.06583 14.9342 10.3178 14.9975 11.8761L15.9202 12.7988ZM9.39311 10.5143C9.14295 10.9523 9 11.4595 9 12C9 13.6569 10.3431 15 12 15C12.5405 15 13.0477 14.857 13.4857 14.6069L14.212 15.3332C13.5784 15.7545 12.8179 16 12 16C9.79086 16 8 14.2091 8 12C8 11.1821 8.24547 10.4216 8.66676 9.78799L9.39311 10.5143Z" fill="#0F214D"/>
<path fill-rule="evenodd" clip-rule="evenodd" d="M16.4096 17.5309L15.1609 16.2822C14.1606 16.8126 13.0927 17.15 12 17.15C10.4304 17.15 8.91176 16.4537 7.57154 15.4894C6.23803 14.53 5.15278 13.3566 4.46808 12.5253C4.25841 12.2708 4.16183 12.15 4.10527 12.0552C4.09416 12.0366 4.08769 12.0238 4.08402 12.0158C4.08221 12.0119 4.08108 12.0091 4.08042 12.0074L4.07989 12.0059L4.07974 12L4.07989 11.9941L4.08042 11.9926C4.08108 11.9909 4.08221 11.9881 4.08402 11.9842C4.08769 11.9762 4.09416 11.9634 4.10527 11.9448C4.16183 11.85 4.25841 11.7292 4.46808 11.4747C5.13463 10.6654 6.18077 9.53195 7.466 8.58732L6.2516 7.37292C4.90843 8.39657 3.83686 9.5671 3.15588 10.3939C3.13275 10.422 3.109 10.4505 3.08484 10.4795C2.76784 10.8603 2.37974 11.3265 2.37974 12C2.37974 12.6735 2.76784 13.1397 3.08484 13.5205L3.08505 13.5207C3.10914 13.5497 3.13281 13.5781 3.15588 13.6061C3.89127 14.499 5.08217 15.7927 6.57872 16.8694C8.06856 17.9413 9.93389 18.85 12 18.85C13.6218 18.85 15.1198 18.2901 16.4096 17.5309ZM8.92139 5.80007C9.87451 5.40326 10.9093 5.15 12 5.15C14.0661 5.15 15.9315 6.05873 17.4213 7.13061C18.9179 8.20731 20.1088 9.50104 20.8441 10.3939C20.8672 10.4219 20.8909 10.4503 20.9149 10.4792L20.9152 10.4795C21.2322 10.8603 21.6203 11.3265 21.6203 12C21.6203 12.6735 21.2322 13.1397 20.9152 13.5205C20.891 13.5495 20.8673 13.578 20.8441 13.6061C20.3594 14.1947 19.6766 14.9575 18.8388 15.7175L17.6352 14.5139C18.4198 13.8093 19.0679 13.0887 19.5319 12.5253C19.7416 12.2708 19.8382 12.15 19.8947 12.0552C19.9059 12.0366 19.9123 12.0238 19.916 12.0158C19.9178 12.0119 19.9189 12.0091 19.9196 12.0074L19.9201 12.0059L19.9203 12L19.9201 11.9941L19.9196 11.9926C19.9189 11.9909 19.9178 11.9881 19.916 11.9842C19.9123 11.9762 19.9059 11.9634 19.8947 11.9448C19.8382 11.85 19.7416 11.7292 19.5319 11.4747C18.8472 10.6434 17.762 9.46997 16.4285 8.51057C15.0883 7.54634 13.5696 6.85 12 6.85C11.4061 6.85 10.8196 6.94969 10.2472 7.12585L8.92139 5.80007Z" fill="#0F214D"/>
<path d="M5 2L21 18" stroke="#0F214D" stroke-width="1.7"/>
</svg>
