<svg width="12" height="13" viewBox="0 0 12 13" fill="none" xmlns="http://www.w3.org/2000/svg">
<path d="M6 12.8281C5.94922 12.8281 5.88574 12.8175 5.80957 12.7964C5.73763 12.7795 5.66146 12.7498 5.58105 12.7075C4.69661 12.2039 3.94759 11.7596 3.33398 11.3745C2.72461 10.9894 2.23372 10.617 1.86133 10.2573C1.49316 9.89339 1.22445 9.50195 1.05518 9.08301C0.890137 8.65983 0.807617 8.1626 0.807617 7.59131V2.80518C0.807617 2.47933 0.877441 2.24447 1.01709 2.10059C1.15674 1.95247 1.35775 1.82552 1.62012 1.71973C1.76823 1.66048 1.97135 1.58219 2.22949 1.48486C2.48763 1.3833 2.77116 1.27539 3.08008 1.16113C3.39323 1.04264 3.70426 0.928385 4.01318 0.818359C4.32633 0.704102 4.61198 0.602539 4.87012 0.513672C5.12826 0.420573 5.33138 0.348633 5.47949 0.297852C5.56413 0.272461 5.64876 0.251302 5.7334 0.234375C5.82227 0.217448 5.91113 0.208984 6 0.208984C6.08887 0.208984 6.17773 0.217448 6.2666 0.234375C6.35547 0.251302 6.44222 0.272461 6.52686 0.297852C6.67497 0.348633 6.87598 0.420573 7.12988 0.513672C7.38802 0.602539 7.67155 0.704102 7.98047 0.818359C8.29362 0.932617 8.60465 1.04688 8.91357 1.16113C9.22673 1.27539 9.51237 1.38118 9.77051 1.47852C10.0286 1.57585 10.2318 1.65625 10.3799 1.71973C10.6465 1.82975 10.8475 1.95671 10.9829 2.10059C11.1226 2.24447 11.1924 2.47933 11.1924 2.80518V7.59131C11.1924 8.1626 11.112 8.66406 10.9512 9.0957C10.7904 9.52311 10.5259 9.92301 10.1577 10.2954C9.79378 10.6678 9.30501 11.0444 8.69141 11.4253C8.08203 11.8062 7.32454 12.2336 6.41895 12.7075C6.33854 12.7498 6.26025 12.7795 6.18408 12.7964C6.11214 12.8175 6.05078 12.8281 6 12.8281ZM6.00635 7.46436C6.33643 7.46436 6.50358 7.29085 6.50781 6.94385L6.60303 3.49072C6.60726 3.32568 6.55013 3.18815 6.43164 3.07812C6.31738 2.96387 6.1735 2.90674 6 2.90674C5.82227 2.90674 5.67627 2.96175 5.56201 3.07178C5.45199 3.1818 5.39909 3.31934 5.40332 3.48438L5.48584 6.94385C5.4943 7.29085 5.66781 7.46436 6.00635 7.46436ZM6.00635 9.59082C6.19678 9.59082 6.36182 9.52523 6.50146 9.39404C6.64535 9.26286 6.71729 9.10205 6.71729 8.91162C6.71729 8.72119 6.64535 8.56038 6.50146 8.4292C6.36182 8.29378 6.19678 8.22607 6.00635 8.22607C5.81169 8.22607 5.64453 8.29378 5.50488 8.4292C5.36523 8.56462 5.29541 8.72542 5.29541 8.91162C5.29541 9.10205 5.36523 9.26286 5.50488 9.39404C5.64876 9.52523 5.81592 9.59082 6.00635 9.59082Z" fill="white"/>
</svg>
