<svg width="24" height="24" viewBox="0 0 24 24" fill="none" xmlns="http://www.w3.org/2000/svg">
<path d="M12 4C16.3978 4 19.9957 7.59351 20 11.9913C20.0043 16.3978 16.3935 20.0086 11.9827 20C7.59351 19.9913 4 16.3849 4 11.9913C4 7.59783 7.60648 4 12 4ZM12.2465 5.28865C11.6713 5.28865 11.2216 5.33189 10.7762 5.41838C9.06378 5.75567 7.67567 6.62486 6.57729 7.96973C6.51675 8.04324 6.41729 8.1254 6.46054 8.23351C6.50811 8.34594 6.62919 8.32432 6.72865 8.33297C6.95351 8.35459 7.17838 8.38486 7.40324 8.39351C7.57621 8.40216 7.70594 8.45837 7.79243 8.61405C7.93946 8.89081 8.18594 8.97729 8.48 8.9254C8.7481 8.87783 8.82162 9.01189 8.82162 9.2454C8.82162 9.52648 8.72216 9.76864 8.60108 10.0195C8.35027 10.5384 8.25946 11.0876 8.60108 11.5935C8.75243 11.814 8.89513 12.0216 8.91243 12.2897C8.93405 12.6919 9.13297 12.9557 9.46594 13.1589C9.74702 13.3319 10.0108 13.5395 10.0843 13.8897C10.1924 14.3913 10.5038 14.694 10.9708 14.8713C11.1178 14.9276 11.2562 15.027 11.4032 14.8757C11.5589 14.72 11.7059 14.5643 11.6108 14.3135C11.5546 14.1665 11.5027 14.0151 11.4638 13.8638C11.2822 13.1935 11.4681 12.9167 12.16 12.8908C13.0378 12.8605 13.7557 12.5492 14.2746 11.8184C14.4086 11.6324 14.5773 11.4811 14.4346 11.2216C14.3654 11.1005 14.4692 11.0054 14.5557 10.9319C15.053 10.4995 15.3557 9.92864 15.6843 9.37513C15.7578 9.25405 15.9092 9.08973 15.814 8.98162C15.693 8.84324 15.5676 9.05081 15.4378 9.09405C15.373 9.11567 15.3167 9.15891 15.2562 9.18918C15.0832 9.27135 15.014 9.21081 14.9881 9.02918C14.8713 8.21189 14.4822 7.88756 13.6649 7.85297C13.414 7.84432 13.3492 7.93513 13.3535 8.16C13.3535 8.44108 13.4011 8.72648 13.3232 9.00324C13.2627 9.21945 13.1632 9.28864 12.9643 9.13297C12.6876 8.91675 12.4108 8.70054 12.1211 8.50594C11.9005 8.35891 11.8919 8.22054 12.0432 8.00865C12.3589 7.56756 12.7697 7.27783 13.28 7.10919C13.4097 7.06594 13.6303 7.08324 13.6432 6.92324C13.6562 6.77621 13.4357 6.74594 13.3189 6.66378C13.2065 6.58594 13.0854 6.5254 12.973 6.45189C12.8865 6.39135 12.7308 6.3654 12.7784 6.21838C12.8173 6.08865 12.9513 6.04973 13.0811 6.0454C13.3405 6.04108 13.6 6.0454 13.8594 6.03243C13.9503 6.03243 14.08 5.99784 13.9676 5.87675C13.7643 5.65621 13.5913 5.38811 13.2411 5.36216C12.8692 5.33622 12.4973 5.31027 12.2465 5.29297V5.28865ZM14.6551 18.0411C14.9751 18.0281 15.2432 17.9416 15.4984 17.8162C16.6573 17.254 17.3967 16.2811 18.0194 15.2C18.1449 14.9838 17.9935 14.9319 17.8205 14.9665C17.3405 15.0616 16.8519 15.0357 16.3719 15.0659C15.974 15.0919 15.5978 15.187 15.2519 15.4076C15.0746 15.5243 14.9449 15.6281 15.0573 15.8659C15.1308 16.0173 15.0097 16.1211 14.9232 16.2205C14.6249 16.5578 14.3567 16.9254 14.0195 17.2281C13.907 17.3276 13.7903 17.4443 13.92 17.6C14.1189 17.8421 14.3697 18.0065 14.6594 18.0367L14.6551 18.0411ZM12.9081 14.4432C12.7049 14.4389 12.5795 14.4865 12.5708 14.6292C12.5578 14.8757 12.2854 15.1481 12.6054 15.3686C12.9686 15.6151 13.3362 15.853 13.7081 16.0778C13.8681 16.173 14.0108 16.0605 14.1492 15.9913C14.2313 15.9524 14.2659 15.8832 14.2227 15.7967C13.9719 15.2605 13.5524 14.8627 13.0984 14.5038C13.0335 14.4519 12.9297 14.4519 12.9038 14.4432H12.9081ZM14.6378 14.4303C14.8843 14.4692 15.0443 14.3308 15.187 14.1578C15.2735 14.054 15.36 13.9459 15.2865 13.7946C15.2043 13.6346 15.0746 13.5697 14.8973 13.5913C14.6162 13.6259 14.3394 13.6562 14.0627 13.7038C13.7643 13.7557 13.7254 13.8897 13.8854 14.1535C14.067 14.4562 14.374 14.374 14.6378 14.4259V14.4303ZM16.6313 13.4443C17.1286 13.4443 17.2886 13.0076 17.5222 12.6573C17.5654 12.5967 17.6303 12.5189 17.5654 12.4454C17.5092 12.3762 17.4184 12.4022 17.3405 12.4195C16.9038 12.5189 16.5924 12.774 16.4108 13.1849C16.3243 13.3751 16.3892 13.4659 16.6313 13.4443Z" fill="#478CF6"/>
<path d="M12 4C16.3978 4 19.9957 7.59351 20 11.9913C20.0043 16.3978 16.3935 20.0086 11.9827 20C7.59351 19.9913 4 16.3849 4 11.9913C4 7.59783 7.60648 4 12 4ZM12.2465 5.28865C11.6713 5.28865 11.2216 5.33189 10.7762 5.41838C9.06378 5.75567 7.67567 6.62486 6.57729 7.96973C6.51675 8.04324 6.41729 8.1254 6.46054 8.23351C6.50811 8.34594 6.62919 8.32432 6.72865 8.33297C6.95351 8.35459 7.17838 8.38486 7.40324 8.39351C7.57621 8.40216 7.70594 8.45837 7.79243 8.61405C7.93946 8.89081 8.18594 8.97729 8.48 8.9254C8.7481 8.87783 8.82162 9.01189 8.82162 9.2454C8.82162 9.52648 8.72216 9.76864 8.60108 10.0195C8.35027 10.5384 8.25946 11.0876 8.60108 11.5935C8.75243 11.814 8.89513 12.0216 8.91243 12.2897C8.93405 12.6919 9.13297 12.9557 9.46594 13.1589C9.74702 13.3319 10.0108 13.5395 10.0843 13.8897C10.1924 14.3913 10.5038 14.694 10.9708 14.8713C11.1178 14.9276 11.2562 15.027 11.4032 14.8757C11.5589 14.72 11.7059 14.5643 11.6108 14.3135C11.5546 14.1665 11.5027 14.0151 11.4638 13.8638C11.2822 13.1935 11.4681 12.9167 12.16 12.8908C13.0378 12.8605 13.7557 12.5492 14.2746 11.8184C14.4086 11.6324 14.5773 11.4811 14.4346 11.2216C14.3654 11.1005 14.4692 11.0054 14.5557 10.9319C15.053 10.4995 15.3557 9.92864 15.6843 9.37513C15.7578 9.25405 15.9092 9.08973 15.814 8.98162C15.693 8.84324 15.5676 9.05081 15.4378 9.09405C15.373 9.11567 15.3167 9.15891 15.2562 9.18918C15.0832 9.27135 15.014 9.21081 14.9881 9.02918C14.8713 8.21189 14.4822 7.88756 13.6649 7.85297C13.414 7.84432 13.3492 7.93513 13.3535 8.16C13.3535 8.44108 13.4011 8.72648 13.3232 9.00324C13.2627 9.21945 13.1632 9.28864 12.9643 9.13297C12.6876 8.91675 12.4108 8.70054 12.1211 8.50594C11.9005 8.35891 11.8919 8.22054 12.0432 8.00865C12.3589 7.56756 12.7697 7.27783 13.28 7.10919C13.4097 7.06594 13.6303 7.08324 13.6432 6.92324C13.6562 6.77621 13.4357 6.74594 13.3189 6.66378C13.2065 6.58594 13.0854 6.5254 12.973 6.45189C12.8865 6.39135 12.7308 6.3654 12.7784 6.21838C12.8173 6.08865 12.9513 6.04973 13.0811 6.0454C13.3405 6.04108 13.6 6.0454 13.8594 6.03243C13.9503 6.03243 14.08 5.99784 13.9676 5.87675C13.7643 5.65621 13.5913 5.38811 13.2411 5.36216C12.8692 5.33622 12.4973 5.31027 12.2465 5.29297V5.28865ZM14.6551 18.0411C14.9751 18.0281 15.2432 17.9416 15.4984 17.8162C16.6573 17.254 17.3967 16.2811 18.0194 15.2C18.1449 14.9838 17.9935 14.9319 17.8205 14.9665C17.3405 15.0616 16.8519 15.0357 16.3719 15.0659C15.974 15.0919 15.5978 15.187 15.2519 15.4076C15.0746 15.5243 14.9449 15.6281 15.0573 15.8659C15.1308 16.0173 15.0097 16.1211 14.9232 16.2205C14.6249 16.5578 14.3567 16.9254 14.0195 17.2281C13.907 17.3276 13.7903 17.4443 13.92 17.6C14.1189 17.8421 14.3697 18.0065 14.6594 18.0367L14.6551 18.0411ZM12.9081 14.4432C12.7049 14.4389 12.5795 14.4865 12.5708 14.6292C12.5578 14.8757 12.2854 15.1481 12.6054 15.3686C12.9686 15.6151 13.3362 15.853 13.7081 16.0778C13.8681 16.173 14.0108 16.0605 14.1492 15.9913C14.2313 15.9524 14.2659 15.8832 14.2227 15.7967C13.9719 15.2605 13.5524 14.8627 13.0984 14.5038C13.0335 14.4519 12.9297 14.4519 12.9038 14.4432H12.9081ZM14.6378 14.4303C14.8843 14.4692 15.0443 14.3308 15.187 14.1578C15.2735 14.054 15.36 13.9459 15.2865 13.7946C15.2043 13.6346 15.0746 13.5697 14.8973 13.5913C14.6162 13.6259 14.3394 13.6562 14.0627 13.7038C13.7643 13.7557 13.7254 13.8897 13.8854 14.1535C14.067 14.4562 14.374 14.374 14.6378 14.4259V14.4303ZM16.6313 13.4443C17.1286 13.4443 17.2886 13.0076 17.5222 12.6573C17.5654 12.5967 17.6303 12.5189 17.5654 12.4454C17.5092 12.3762 17.4184 12.4022 17.3405 12.4195C16.9038 12.5189 16.5924 12.774 16.4108 13.1849C16.3243 13.3751 16.3892 13.4659 16.6313 13.4443Z" fill="url(#paint0_linear_103_994)" fill-opacity="0.75" style="mix-blend-mode:overlay"/>
<path d="M12.2465 5.28863C12.4974 5.30592 12.8692 5.33619 13.2411 5.35782C13.5871 5.37944 13.7644 5.65187 13.9676 5.87241C14.0801 5.99349 13.9503 6.02376 13.8595 6.02808C13.6001 6.03673 13.3406 6.03673 13.0811 6.04106C12.9471 6.04106 12.8174 6.0843 12.7784 6.21403C12.7352 6.36106 12.8865 6.39133 12.973 6.44754C13.0855 6.52538 13.2109 6.5816 13.319 6.65944C13.4357 6.7416 13.6563 6.77187 13.6433 6.91889C13.6303 7.07457 13.4098 7.0616 13.2801 7.10484C12.7698 7.27349 12.359 7.56322 12.0433 8.0043C11.8919 8.21619 11.9006 8.35457 12.1211 8.5016C12.4109 8.69619 12.6876 8.91241 12.9644 9.12862C13.1633 9.2843 13.2671 9.21511 13.3233 8.99889C13.3968 8.71781 13.3579 8.43673 13.3536 8.15565C13.3536 7.93079 13.4141 7.83997 13.6649 7.84862C14.4822 7.87889 14.8714 8.20754 14.9882 9.02484C15.0141 9.21078 15.0833 9.27132 15.2563 9.18484C15.3168 9.15457 15.373 9.11133 15.4379 9.0897C15.5676 9.04646 15.693 8.83889 15.8141 8.97727C15.9092 9.08538 15.7579 9.24538 15.6844 9.37078C15.3601 9.9243 15.0573 10.4994 14.5557 10.9275C14.4736 11.0011 14.3698 11.0962 14.4346 11.2173C14.5817 11.4767 14.4087 11.6281 14.2746 11.814C13.7557 12.5448 13.0336 12.8562 12.1601 12.8865C11.4725 12.9124 11.2822 13.1892 11.4638 13.8594C11.5071 14.0108 11.5546 14.1621 11.6109 14.3092C11.706 14.56 11.559 14.7156 11.4033 14.8713C11.2563 15.0227 11.1179 14.9232 10.9709 14.867C10.5038 14.694 10.1925 14.387 10.0844 13.8854C10.0109 13.5351 9.74276 13.3275 9.466 13.1546C9.13303 12.9513 8.93411 12.6875 8.91249 12.2854C8.89952 12.0216 8.75249 11.814 8.60114 11.5892C8.25952 11.0832 8.35033 10.534 8.60114 10.0151C8.72222 9.76862 8.82168 9.52214 8.82168 9.24105C8.82168 9.00754 8.74817 8.87349 8.48006 8.92106C8.186 8.97295 7.93952 8.88646 7.79249 8.6097C7.706 8.4497 7.57627 8.39781 7.4033 8.38916C7.17844 8.37619 6.95357 8.35024 6.72871 8.32862C6.62925 8.31997 6.50384 8.3416 6.4606 8.22916C6.41736 8.12106 6.51249 8.03889 6.57736 7.96538C7.68006 6.62484 9.06817 5.75133 10.7763 5.41403C11.2217 5.32754 11.6714 5.2843 12.2465 5.2843V5.28863Z" fill="#E8EBF2"/>
<path d="M14.6549 18.041C14.3652 18.0108 14.1144 17.8464 13.9155 17.6043C13.7857 17.4443 13.9025 17.3318 14.0149 17.2324C14.3522 16.9297 14.616 16.5621 14.9187 16.2248C15.0052 16.1254 15.1263 16.0216 15.0528 15.8702C14.9403 15.6324 15.0701 15.5286 15.2474 15.4118C15.589 15.187 15.9652 15.0962 16.3674 15.0702C16.8517 15.04 17.336 15.0702 17.816 14.9708C17.989 14.9362 18.1403 14.9881 18.0149 15.2043C17.3922 16.2854 16.6528 17.254 15.4938 17.8205C15.2387 17.9459 14.9706 18.0324 14.6506 18.0454L14.6549 18.041Z" fill="#E8EBF2"/>
<path d="M12.908 14.4432C12.9339 14.4519 13.0377 14.4519 13.1026 14.5038C13.5566 14.8627 13.9761 15.2605 14.2269 15.7968C14.2658 15.8832 14.2355 15.9524 14.1534 15.9913C14.015 16.0605 13.8723 16.173 13.7123 16.0778C13.3404 15.8486 12.9685 15.6151 12.6096 15.3686C12.2853 15.1481 12.562 14.8757 12.575 14.6292C12.5836 14.4822 12.7091 14.4346 12.9123 14.4432H12.908Z" fill="#E8EBF2"/>
<path d="M14.6378 14.4302C14.374 14.3783 14.067 14.4605 13.8854 14.1578C13.7254 13.894 13.7643 13.7599 14.0627 13.708C14.3394 13.6605 14.6205 13.6302 14.8973 13.5956C15.0703 13.574 15.2043 13.6388 15.2865 13.7988C15.3643 13.9502 15.2735 14.054 15.187 14.1621C15.0443 14.3307 14.8886 14.4734 14.6378 14.4345V14.4302Z" fill="#E8EBF2"/>
<path d="M16.6314 13.4442C16.3935 13.4615 16.3287 13.3707 16.4108 13.1848C16.5925 12.7783 16.9038 12.5231 17.3406 12.4194C17.4141 12.4021 17.5049 12.3761 17.5654 12.4453C17.6303 12.5231 17.5654 12.5967 17.5222 12.6572C17.2887 13.0075 17.1287 13.4442 16.6314 13.4442Z" fill="#E8EBF2"/>
<defs>
<linearGradient id="paint0_linear_103_994" x1="12" y1="4" x2="12" y2="20" gradientUnits="userSpaceOnUse">
<stop stop-color="#666666"/>
<stop offset="0.677083" stop-color="#666666" stop-opacity="0"/>
</linearGradient>
</defs>
</svg>
